<?xml version="1.0" standalone="no"?>
<!DOCTYPE svg PUBLIC "-//W3C//DTD SVG 1.1//EN" "http://www.w3.org/Graphics/SVG/1.1/DTD/svg11.dtd" >
<svg xmlns="http://www.w3.org/2000/svg">
<metadata></metadata>
<defs>
<font id="atc_harrislight" horiz-adv-x="1228" >
<font-face units-per-em="2048" ascent="1638" descent="-410" />
<missing-glyph horiz-adv-x="500" />
<glyph unicode=" " />
<glyph unicode="!" d="M655 1434v-682l-14 -324h-53l-15 324v682h82zM614 -20q-41 0 -69.5 28.5t-28.5 69.5q0 40 28.5 69t69.5 29q40 0 69.5 -29t29.5 -69q0 -41 -29.5 -69.5t-69.5 -28.5z" />
<glyph unicode="&#x22;" d="M508 1018h-76v436h76v-436zM797 1018h-76v436h76v-436z" />
<glyph unicode="#" d="M1092 518v-61h-295l-80 -457h-72l80 457h-313l-80 -457h-74l80 457h-201v61h213l70 397h-283v62h295l80 457h72l-80 -457h313l80 457h74l-80 -457h201v-62h-213l-70 -397h283zM422 518h313l72 397h-313z" />
<glyph unicode="$" d="M627 768q179 -46 246 -74q162 -69 203 -198q16 -49 16 -109q0 -181 -132.5 -294t-338.5 -113q-51 0 -97 6l-24 -191h-47l26 197q-159 31 -250.5 126.5t-91.5 231.5h76q0 -101 72.5 -179t203.5 -105l86 645q-73 19 -121 35t-105 46t-91 66t-57 92.5t-23 128.5 q0 165 128.5 270t314.5 105q35 0 51 -2l24 186h47l-26 -192q152 -22 243 -112.5t91 -225.5h-76q0 98 -69.5 173.5t-196.5 96.5zM258 1079q0 -56 18 -101t45.5 -75t73 -54.5t87.5 -39.5t102 -31l80 604q-14 2 -43 2q-148 0 -255.5 -84t-107.5 -221zM621 53q180 0 285.5 92.5 t105.5 239.5q0 45 -12.5 82.5t-29.5 64t-50.5 51t-61 39t-75.5 31t-78.5 25t-86.5 22.5l-83 -643q54 -4 86 -4z" />
<glyph unicode="%" d="M365 922q-117 0 -190 77.5t-73 186.5q0 113 73 190.5t190 77.5q113 0 185.5 -77.5t72.5 -190.5q0 -109 -72.5 -186.5t-185.5 -77.5zM365 985q86 0 140 58t54 143q0 89 -53 147t-141 58q-92 0 -145.5 -57.5t-53.5 -147.5q0 -86 54 -143.5t145 -57.5zM311 410h-96l703 614 h96zM868 -20q-116 0 -189 77t-73 187q0 112 73 190t189 78q114 0 186 -78t72 -190q0 -110 -72 -187t-186 -77zM868 43q88 0 141.5 57.5t53.5 143.5q0 88 -53 146.5t-142 58.5q-90 0 -144 -58.5t-54 -146.5q0 -87 54 -144t144 -57z" />
<glyph unicode="&#x26;" d="M909 131q-134 -151 -334 -151q-187 0 -314.5 133.5t-127.5 324.5q0 135 64.5 244t173.5 178q-86 145 -86 279q0 132 93 223.5t238 91.5q72 0 133.5 -27t102 -73t64 -102.5t22.5 -120t-27 -121.5h-75q23 41 28 91.5t-9.5 99.5t-44.5 90t-80.5 66t-113.5 25t-113.5 -22 t-81 -58.5t-46 -79t-15.5 -87.5q0 -61 20.5 -124t76.5 -157q10 -17 23.5 -37.5t26 -39t33 -46.5t35 -48t43 -57t46 -60t54 -70t57.5 -74.5t66.5 -86t71.5 -91.5q56 90 56 225h73q0 -165 -84 -287l140 -180l-86 -2zM584 53q178 0 282 135q-223 286 -308.5 401.5t-147.5 209.5 q-81 -48 -141 -141t-60 -214q0 -83 32 -157t84.5 -124.5t120 -80t138.5 -29.5z" />
<glyph unicode="'" d="M653 1018h-78v436h78v-436z" />
<glyph unicode="(" d="M842 -225q-242 177 -348.5 403t-106.5 539t106.5 539t348.5 403v-90q-204 -157 -289.5 -365.5t-85.5 -486.5t85.5 -486.5t289.5 -365.5v-90z" />
<glyph unicode=")" d="M387 -135q204 157 289.5 365.5t85.5 486.5t-85.5 486.5t-289.5 365.5v90q242 -177 348.5 -403t106.5 -539t-106.5 -539t-348.5 -403v90z" />
<glyph unicode="*" d="M303 1219l19 59l260 -96v258h63l-2 -258l262 96l21 -59l-264 -95l167 -233l-51 -39l-166 233l-166 -233l-49 39l166 233z" />
<glyph unicode="+" d="M649 61h-69v416h-416v70h416v416h69v-416h416v-70h-416v-416z" />
<glyph unicode="," d="M535 -170h-70l192 436h103z" />
<glyph unicode="-" d="M901 477h-573v70h573v-70z" />
<glyph unicode="." d="M614 -20q-41 0 -69.5 28.5t-28.5 69.5q0 40 28.5 69t69.5 29q40 0 69.5 -29t29.5 -69q0 -41 -29.5 -69.5t-69.5 -28.5z" />
<glyph unicode="/" d="M358 -20h-77l589 1474h78z" />
<glyph unicode="0" d="M614 1454q214 0 338.5 -183.5t124.5 -553.5q0 -369 -125 -553t-338 -184q-212 0 -337 184.5t-125 552.5t125 552.5t337 184.5zM614 1374q-176 0 -278.5 -164t-102.5 -493q0 -311 97 -473l540 1005q-94 125 -256 125zM614 59q177 0 279 164t102 494q0 311 -96 475 l-543 -1006q98 -127 258 -127z" />
<glyph unicode="1" d="M614 1307q-45 -51 -136 -93.5t-177 -42.5v70q93 0 197.5 58t134.5 135h63v-1364h396v-70h-873v70h395v1237z" />
<glyph unicode="2" d="M178 117q0 100 29 160t112 135l447 436q141 141 141 250q0 120 -89.5 202t-221.5 82q-148 0 -245 -103.5t-97 -262.5h-76q0 190 119 314t301 124q168 0 279.5 -102.5t111.5 -245.5q0 -84 -47 -162t-139 -164l-402 -395q-89 -84 -115 -128t-26 -105v-82h791v-70h-873v117z " />
<glyph unicode="3" d="M614 -20q-108 0 -193.5 35.5t-138.5 96.5t-80.5 138.5t-27.5 165.5h76q0 -157 97 -261t265 -104q69 0 133.5 24t115.5 67t81.5 108.5t30.5 142.5q0 101 -57 177.5t-144.5 114t-189.5 38.5v61q61 1 122.5 24.5t112.5 64t83 102t32 131.5q0 121 -88.5 196.5t-212.5 75.5 q-155 0 -247.5 -102t-92.5 -258h-76q0 118 47.5 215.5t145 159t227.5 61.5q160 0 269.5 -97t109.5 -243q0 -228 -258 -354q130 -45 214.5 -136.5t84.5 -232.5q0 -91 -35.5 -168.5t-95.5 -130.5t-140.5 -82.5t-169.5 -29.5z" />
<glyph unicode="4" d="M158 371l665 1063h72v-1057h176v-70h-176v-307h-82v307h-655v64zM244 377h569v913z" />
<glyph unicode="5" d="M596 -20q-145 0 -258.5 85.5t-159.5 231.5h76q43 -115 136.5 -180.5t203.5 -65.5q164 0 269.5 114.5t105.5 299.5q0 177 -97 296.5t-251 119.5q-109 0 -200 -69.5t-138 -174.5h-68l86 797h709v-70h-639l-68 -610q62 86 150 141t194 55q172 0 288 -140.5t116 -342.5 q0 -213 -128 -350t-327 -137z" />
<glyph unicode="6" d="M614 -20q-136 0 -237.5 74.5t-152 197t-50.5 274.5q0 251 32.5 432t95 288.5t147 157.5t196.5 50q135 0 238 -89.5t131 -246.5h-76q-25 129 -109.5 197.5t-181.5 68.5q-83 0 -147.5 -36t-107 -96.5t-71.5 -151.5t-44 -190.5t-21 -223.5q50 121 152.5 192.5t218.5 71.5 q126 0 225 -67t151 -177t52 -241t-52.5 -240.5t-154.5 -177t-234 -67.5zM614 51q106 0 189 57.5t126.5 151.5t43.5 205t-43.5 205t-126.5 151.5t-189 57.5q-67 0 -130.5 -27.5t-114.5 -77t-82 -125.5t-31 -166q0 -72 21.5 -145t63 -138.5t113 -107t160.5 -41.5z" />
<glyph unicode="7" d="M465 0q0 391 118.5 728.5t368.5 635.5h-774v70h873v-60q-260 -306 -383 -642.5t-123 -731.5h-80z" />
<glyph unicode="8" d="M614 -20q-196 0 -328 123.5t-132 308.5q0 134 80.5 238t205.5 147q-96 38 -160.5 122t-64.5 183q0 152 117 252t282 100t282.5 -100t117.5 -252q0 -99 -64.5 -183t-161.5 -122q125 -43 206 -147t81 -238q0 -185 -132.5 -308.5t-328.5 -123.5zM614 825q78 0 149.5 32 t120 95.5t48.5 143.5q0 123 -94.5 204.5t-223.5 81.5t-223 -81.5t-94 -204.5q0 -80 48 -143.5t119.5 -95.5t149.5 -32zM614 53q156 0 267.5 105t111.5 258q0 149 -108.5 244.5t-270.5 95.5t-270 -95.5t-108 -244.5q0 -153 111 -258t267 -105z" />
<glyph unicode="9" d="M584 -20q-135 0 -238 89t-131 246h76q25 -129 109.5 -197.5t181.5 -68.5q83 0 147.5 36t107 97t71.5 152t44 190.5t21 223.5q-50 -121 -152.5 -193t-218.5 -72q-126 0 -225 67t-151 177t-52 242q0 131 52.5 240.5t154 177t233.5 67.5q136 0 238 -74.5t152.5 -197.5 t50.5 -275q0 -251 -32.5 -432t-95 -288.5t-147 -157t-196.5 -49.5zM614 555q67 0 130.5 27.5t115 76.5t82.5 125t31 166q0 72 -21.5 145t-63.5 138.5t-113.5 107t-160.5 41.5q-106 0 -189 -57.5t-126 -151t-43 -204.5q0 -172 99.5 -293t258.5 -121z" />
<glyph unicode=":" d="M614 848q-41 0 -69.5 29t-28.5 69q0 41 28.5 69.5t69.5 28.5q40 0 69.5 -28.5t29.5 -69.5q0 -40 -29.5 -69t-69.5 -29zM614 -20q-41 0 -69.5 28.5t-28.5 69.5q0 40 28.5 69t69.5 29q40 0 69.5 -29t29.5 -69q0 -41 -29.5 -69.5t-69.5 -28.5z" />
<glyph unicode=";" d="M614 848q-41 0 -69.5 29t-28.5 69q0 41 28.5 69.5t69.5 28.5q40 0 69.5 -28.5t29.5 -69.5q0 -40 -29.5 -69t-69.5 -29zM438 -170h-69l194 436h103z" />
<glyph unicode="&#x3c;" d="M967 1044v-92l-607 -440l607 -440v-92l-705 514v36z" />
<glyph unicode="=" d="M1065 700h-901v66h901v-66zM1065 258h-901v66h901v-66z" />
<glyph unicode="&#x3e;" d="M262 952v92l705 -514v-36l-705 -514v92l606 440z" />
<glyph unicode="?" d="M985 1126q0 -66 -21.5 -119.5t-55.5 -91t-75.5 -72t-82.5 -71.5t-75 -80.5t-55.5 -109t-21.5 -146.5h-78q0 86 21 155.5t55 115.5t75 85.5t81.5 73t74.5 68t55 81t21 103.5q0 109 -82 186.5t-209 77.5q-96 0 -170.5 -49.5t-106 -134.5t-3.5 -182h-76q-24 87 -3 166.5 t70 140t126 96t165 35.5q163 0 267 -96.5t104 -231.5zM559 -20q-41 0 -68.5 28.5t-27.5 69.5q0 40 27.5 69t68.5 29t69.5 -29t28.5 -69q0 -41 -28.5 -69.5t-69.5 -28.5z" />
<glyph unicode="@" d="M684 -246q-82 0 -157.5 29t-143.5 93.5t-118 158t-79.5 232t-29.5 306.5q0 217 59.5 388.5t174.5 270.5t267 99q97 0 177.5 -39t131 -103.5t78 -143.5t27.5 -162v-678h-53l-14 137q-47 -71 -127 -114.5t-175 -43.5q-92 0 -159 51.5t-97 126.5t-30 162q0 113 49.5 199 t129 126.5t187 29t215.5 -83.5v96q0 67 -22 131.5t-63 119t-107.5 87.5t-147.5 33q-132 0 -231 -89t-150 -244.5t-51 -355.5q0 -157 27 -285.5t72 -213t105 -142.5t124 -83t131 -25q135 0 260 65v-71q-46 -27 -107 -42.5t-94.5 -18.5t-58.5 -3zM713 252q115 0 199.5 64.5 t84.5 170.5v240q-80 55 -158.5 76t-140.5 7.5t-110.5 -51t-74.5 -98.5t-26 -135q0 -114 61 -194t165 -80z" />
<glyph unicode="A" d="M182 0h-86l463 1434h111l463 -1434h-86l-132 414h-602zM332 483h565l-283 881z" />
<glyph unicode="B" d="M600 1434q186 0 308 -95t122 -262q0 -134 -69.5 -219.5t-169.5 -114.5q118 -28 199 -115t81 -229q0 -197 -120 -298t-310 -101h-483v1434h442zM582 774q366 0 366 295q0 146 -101 220.5t-265 74.5h-342v-590h342zM623 70q57 0 108 10t99 34.5t82.5 61.5t55.5 96t21 134 q0 79 -28 138t-79 93.5t-115.5 51t-143.5 16.5h-383v-635h383z" />
<glyph unicode="C" d="M635 -20q-228 0 -360 183.5t-132 553.5t132 553.5t360 183.5q370 0 450 -438h-81q-69 362 -369 362q-90 0 -162 -36t-129 -112.5t-88 -206.5t-31 -306q0 -142 20.5 -254t57 -188t88.5 -126t112.5 -72t131.5 -22q300 0 369 363h81q-80 -438 -450 -438z" />
<glyph unicode="D" d="M498 1434q115 0 199 -17.5t157.5 -64.5t119 -126.5t71.5 -206.5t26 -302t-26 -302.5t-71.5 -207t-119.5 -126t-157.5 -64t-198.5 -17.5h-340v1434h340zM494 72q101 0 172 14t135.5 54.5t103.5 111.5t61.5 186.5t22.5 278.5q0 161 -22.5 276.5t-61.5 187t-103.5 112 t-136 55t-171.5 14.5h-254v-1290h254z" />
<glyph unicode="E" d="M1030 1362h-749v-610h708v-70h-708v-610h749v-72h-831v1434h831v-72z" />
<glyph unicode="F" d="M1030 1362h-749v-608h708v-74h-708v-680h-82v1434h831v-72z" />
<glyph unicode="G" d="M625 -20q-227 0 -354.5 182.5t-127.5 554.5t127.5 554.5t354.5 182.5q371 0 450 -438h-82q-66 362 -368 362q-188 0 -294 -158t-106 -503t106 -503.5t294 -158.5q66 0 120 13t103.5 46t83 85t53 134.5t19.5 190.5v129h-340v70h421v-191q0 -552 -460 -552z" />
<glyph unicode="H" d="M260 754h709v680h82v-1434h-82v680h-709v-680h-82v1434h82v-680z" />
<glyph unicode="I" d="M573 1362h-415v72h913v-72h-416v-1290h416v-72h-913v72h415v1290z" />
<glyph unicode="J" d="M553 -20q-189 0 -309.5 126.5t-120.5 309.5h76q0 -156 101 -261.5t251 -105.5q147 0 249.5 105.5t102.5 261.5v948h-567v70h647v-1018q0 -178 -121.5 -307t-308.5 -129z" />
<glyph unicode="K" d="M233 504v-504h-81v1434h81v-813l725 813h99l-527 -596l547 -838h-90l-508 780z" />
<glyph unicode="L" d="M240 72h831v-72h-913v1434h82v-1362z" />
<glyph unicode="M" d="M614 520l363 914h94v-1434h-78v1305l-348 -881h-61l-348 881v-1305h-78v1434h94z" />
<glyph unicode="N" d="M991 125v1309h80v-1434h-90l-743 1309v-1309h-80v1434h90z" />
<glyph unicode="O" d="M614 -20q-247 0 -364 177.5t-117 559.5t117 559.5t364 177.5q249 0 365.5 -176.5t116.5 -560.5q0 -383 -117 -560t-365 -177zM614 55q211 0 305.5 159t94.5 503t-94.5 502.5t-305.5 158.5q-210 0 -304.5 -159t-94.5 -502t95 -502.5t304 -159.5z" />
<glyph unicode="P" d="M688 1434q191 0 312.5 -99.5t121.5 -287.5t-122 -288t-312 -100h-397v-659h-82v1434h479zM684 731q69 0 130.5 17.5t113 54t82 99.5t30.5 145t-30.5 144.5t-82 98.5t-113 54t-130.5 18h-393v-631h393z" />
<glyph unicode="Q" d="M936 -229q-45 0 -88.5 20t-77.5 48t-67 56t-71.5 48t-76.5 20q-110 0 -160 -92h-61q40 95 117 131q-163 53 -240.5 226.5t-77.5 488.5q0 382 117 559.5t364 177.5q249 0 365.5 -176.5t116.5 -560.5q0 -358 -101.5 -535.5t-316.5 -197.5q26 -15 61 -44t60 -50t61 -37.5 t72 -16.5q60 0 91.5 30.5t47.5 90.5h66q-24 -88 -75.5 -137t-125.5 -49zM614 55q211 0 305.5 159t94.5 503t-94.5 502.5t-305.5 158.5q-210 0 -304.5 -159t-94.5 -502t95 -502.5t304 -159.5z" />
<glyph unicode="R" d="M240 659v-659h-82v1434h479q191 0 312.5 -99.5t121.5 -287.5q0 -161 -91 -258t-243 -121l355 -668h-86l-344 659h-422zM633 731q158 0 257 80t99 236q0 154 -99 234.5t-257 80.5h-393v-631h393z" />
<glyph unicode="S" d="M621 -20q-219 0 -351.5 102t-132.5 268h80q0 -125 107.5 -210t296.5 -85q177 0 283 93t106 237q0 71 -28.5 123t-76.5 84t-110.5 55.5t-131.5 41t-138 36t-131.5 46t-110.5 65t-76.5 99.5t-28.5 144q0 165 128.5 270t314.5 105q191 0 310.5 -94.5t119.5 -251.5h-80 q0 114 -92 194t-258 80q-145 0 -253 -84t-108 -219q0 -72 28.5 -125t76.5 -85t110.5 -55t131.5 -40t138 -35t131.5 -45t110.5 -64.5t76.5 -99t28.5 -143.5q0 -181 -132.5 -294t-338.5 -113z" />
<glyph unicode="T" d="M158 1434h913v-70h-416v-1364h-82v1364h-415v70z" />
<glyph unicode="U" d="M614 -20q-130 0 -220 38t-141 114.5t-73 178t-22 242.5v881h82v-881q0 -125 17.5 -212.5t59.5 -153t115.5 -97t181.5 -31.5t182 31.5t116 97t59.5 153t17.5 212.5v881h82v-881q0 -141 -22 -242.5t-73.5 -178t-141.5 -114.5t-220 -38z" />
<glyph unicode="V" d="M614 76l433 1358h86l-463 -1434h-111l-463 1434h86z" />
<glyph unicode="W" d="M336 113l248 891h61l248 -891l158 1321h82l-181 -1434h-86l-252 883l-252 -883h-86l-180 1434h82z" />
<glyph unicode="X" d="M225 1434l389 -637l390 637h88l-433 -701l453 -733h-88l-410 668l-409 -668h-88l452 733l-432 701h88z" />
<glyph unicode="Y" d="M182 1434l432 -709l433 709h86l-478 -781v-653h-82v653l-477 781h86z" />
<glyph unicode="Z" d="M178 1364v70h873v-64l-803 -1300h823v-70h-913v63l803 1301h-783z" />
<glyph unicode="[" d="M866 1587h-424v-1741h424v-71h-504v1884h504v-72z" />
<glyph unicode="\" d="M948 -20h-78l-589 1474h77z" />
<glyph unicode="]" d="M786 1589h-424v70h504v-1884h-504v69h424v1745z" />
<glyph unicode="^" d="M270 750h-86l412 684h37l411 -684h-86l-344 593z" />
<glyph unicode="_" d="M1065 -217h-901v70h901v-70z" />
<glyph unicode="a" d="M549 -20q-167 0 -255.5 87t-88.5 212q0 138 98.5 226.5t263 92t377.5 -105.5v200q0 93 -45 159t-113.5 95t-150.5 29q-137 0 -225 -81.5t-88 -176.5h-76q0 134 118 230.5t273 96.5q172 0 279.5 -95.5t107.5 -258.5v-690h-59l-17 156q-68 -80 -171.5 -128t-227.5 -48z M545 47q103 0 194 31t148 89.5t57 131.5v125q-106 57 -201.5 84.5t-166 25.5t-127.5 -22.5t-92 -57.5t-53.5 -81t-18.5 -92q0 -107 77 -170.5t183 -63.5z" />
<glyph unicode="b" d="M606 -20q-206 0 -354 176l-16 -156h-60v1434h82v-566q65 81 154.5 128.5t197.5 47.5q193 0 318 -150.5t125 -381.5t-125.5 -381.5t-321.5 -150.5zM594 57q116 0 204 66.5t130.5 168.5t42.5 220t-42.5 220t-130.5 168.5t-204 66.5q-52 0 -108 -17t-108.5 -50.5t-86 -92.5 t-33.5 -133v-324q0 -74 33.5 -133t86 -92.5t108.5 -50.5t108 -17z" />
<glyph unicode="c" d="M633 -20q-202 0 -331.5 150.5t-129.5 381.5t129.5 381.5t331.5 150.5q151 0 265.5 -87.5t158.5 -239.5h-82q-42 122 -133 189t-209 67q-163 0 -271 -129t-108 -332t108 -332t271 -129q118 0 209 67t133 189h82q-44 -151 -159 -239t-265 -88z" />
<glyph unicode="d" d="M623 -20q-196 0 -321.5 150.5t-125.5 381.5t124.5 381.5t317.5 150.5q108 0 198 -47.5t155 -128.5v566h82v-1434h-60l-16 156q-148 -176 -354 -176zM635 57q52 0 108 17t108.5 50.5t86 92.5t33.5 133v324q0 74 -33.5 133t-86 92.5t-108.5 50.5t-108 17q-116 0 -204 -66.5 t-130.5 -168.5t-42.5 -220t42.5 -220t130.5 -168.5t204 -66.5z" />
<glyph unicode="e" d="M629 -20q-131 0 -236 70t-163 190t-58 266q0 150 53.5 271t158.5 194t245 73q82 0 153.5 -26.5t120.5 -69t85 -95.5t52.5 -106.5t16.5 -101.5q0 -51 -19.5 -86t-55.5 -53t-78 -25.5t-97 -7.5h-555q0 -105 46 -201.5t134 -159.5t197 -63q71 0 130 21.5t98 58t64.5 79 t36.5 89.5h78q-25 -106 -87.5 -179.5t-143.5 -105.5t-176 -32zM786 539q189 0 189 110q0 52 -23.5 108t-65.5 105.5t-109.5 81t-147.5 31.5q-76 0 -140 -28t-107 -72.5t-73 -102.5t-43.5 -117t-13.5 -116h534z" />
<glyph unicode="f" d="M514 791h-295v69h295v283q0 132 84.5 221.5t216.5 89.5q131 0 214 -89t83 -222h-76q0 109 -62 175t-159 66t-160 -66t-63 -175v-283h295v-69h-295v-719h397v-72h-872v72h397v719z" />
<glyph unicode="g" d="M1147 991q-36 -38 -86 -65t-96 -33q67 -86 67 -201q0 -154 -114.5 -255t-294.5 -101q-148 0 -252 74q-50 -26 -85.5 -69.5t-35.5 -94.5q0 -97 100.5 -127t311.5 14q190 41 318 -31t128 -217q0 -102 -64 -174.5t-166 -106.5t-229 -34q-137 0 -261.5 37t-205.5 98v82 q199 -141 463 -141q108 0 192 24.5t137.5 80t53.5 136.5q0 113 -103 163.5t-251 19.5q-242 -51 -367 -6t-125 174q0 70 44 120t102 80q-115 103 -115 254q0 153 114.5 252.5t295.5 99.5q191 0 305 -108q49 4 103 35.5t93 72.5zM623 410q147 0 237 78.5t90 203.5 q0 133 -94.5 208t-232.5 75q-145 0 -236.5 -79.5t-91.5 -203.5q0 -125 91 -203.5t237 -78.5z" />
<glyph unicode="h" d="M287 868q64 80 156 128t196 48q85 0 152.5 -23t110 -60.5t71 -89.5t40 -106.5t11.5 -115.5v-649h-82v641q0 50 -8 93.5t-30.5 87.5t-57 75t-92.5 50.5t-133 19.5q-55 0 -112.5 -18.5t-107.5 -52t-82 -88.5t-32 -120v-688h-82v1434h82v-566z" />
<glyph unicode="i" d="M676 1241q-41 0 -69.5 29t-28.5 69q0 41 28.5 70t69.5 29q40 0 69 -29t29 -70q0 -40 -29 -69t-69 -29zM657 952h-335v72h413v-952h336v-72h-872v72h458v880z" />
<glyph unicode="j" d="M862 1241q-41 0 -68.5 28.5t-27.5 69.5q0 42 27.5 70.5t68.5 28.5t70 -29t29 -70t-29 -69.5t-70 -28.5zM627 -430q-134 0 -217.5 89t-83.5 222h75q0 -108 64 -174.5t160 -66.5q94 0 156.5 66.5t62.5 174.5v1071h-592v72h672v-1143q0 -132 -83.5 -221.5t-213.5 -89.5z" />
<glyph unicode="k" d="M342 399v-399h-82v1434h82v-930l586 520h106l-413 -373l430 -651h-93l-395 596z" />
<glyph unicode="l" d="M573 1362h-333v72h415v-1360h396v-74h-873v72h395v1290z" />
<glyph unicode="m" d="M203 868q36 69 102 122.5t137 53.5q154 0 197 -196q45 94 114 145t136 51q211 0 211 -360v-684h-80v670q0 52 -3 91.5t-13 80t-27.5 66.5t-47 42.5t-69.5 16.5q-77 0 -143 -82t-66 -203v-682h-73v670q0 52 -3 91.5t-13.5 80t-27.5 66.5t-47 42.5t-71 16.5q-77 0 -142 -82 t-65 -203v-682h-80v1024h57z" />
<glyph unicode="n" d="M281 868q148 176 354 176q87 0 155.5 -23t111.5 -60.5t71.5 -89.5t39.5 -106.5t11 -115.5v-649h-82v641q0 50 -8 93.5t-30.5 87.5t-57 75t-92.5 50.5t-133 19.5q-55 0 -112.5 -18.5t-107.5 -52t-82 -88.5t-32 -120v-688h-82v1024h59z" />
<glyph unicode="o" d="M614 -20q-202 0 -331 150.5t-129 381.5t129 381.5t331 150.5q203 0 332 -149.5t129 -382.5q0 -231 -129 -381.5t-332 -150.5zM614 55q165 0 272 125.5t107 331.5t-107 331.5t-272 125.5q-164 0 -271 -125.5t-107 -331.5t107 -331.5t271 -125.5z" />
<glyph unicode="p" d="M252 868q148 176 354 176q196 0 321.5 -150.5t125.5 -381.5t-125 -381.5t-318 -150.5q-108 0 -197.5 47.5t-154.5 128.5v-566h-82v1434h60zM594 57q116 0 204 66.5t130.5 168.5t42.5 220t-42.5 220t-130.5 168.5t-204 66.5q-52 0 -108 -17t-108.5 -50.5t-86 -92.5 t-33.5 -133v-324q0 -74 33.5 -133t86 -92.5t108.5 -50.5t108 -17z" />
<glyph unicode="q" d="M971 156q-65 -81 -155 -128.5t-198 -47.5q-193 0 -317.5 150.5t-124.5 381.5t125.5 381.5t321.5 150.5q206 0 354 -176l16 156h60v-1434h-82v566zM635 57q52 0 108 17t108.5 50.5t86 92.5t33.5 133v324q0 74 -33.5 133t-86 92.5t-108.5 50.5t-108 17q-116 0 -204 -66.5 t-130.5 -168.5t-42.5 -220t42.5 -220t130.5 -168.5t204 -66.5z" />
<glyph unicode="r" d="M303 1024h62l16 -156q53 75 133 125.5t180 50.5q86 0 155 -34.5t110.5 -91t63 -124.5t21.5 -141h-79q0 55 -16 107.5t-47.5 100t-89 77t-132.5 29.5q-52 0 -102.5 -19t-94.5 -55t-71 -95t-27 -132v-594h426v-72h-668v72h160v952z" />
<glyph unicode="s" d="M612 -20q-188 0 -306 97.5t-118 260.5h76q0 -129 96 -209t252 -80q158 0 253.5 64.5t95.5 179.5q0 83 -55 121t-185 59l-248 39q-130 22 -198 76t-68 160q0 91 58 160t147 102.5t192 33.5q175 0 285 -90t110 -243h-75q0 111 -83 187.5t-237 76.5q-79 0 -149.5 -25.5 t-119 -79.5t-48.5 -125q0 -32 7.5 -56.5t25.5 -42t36.5 -29.5t50.5 -21.5t56.5 -14.5t66.5 -12l228 -37q140 -22 211 -74.5t71 -164.5q0 -101 -57.5 -173t-152.5 -106t-218 -34z" />
<glyph unicode="t" d="M733 -20q-132 0 -216.5 89.5t-84.5 221.5v663h-254v70h254v410h78v-410h520v-70h-520v-663q0 -109 63 -175.5t160 -66.5t159 66.5t62 175.5h76q0 -132 -83.5 -221.5t-213.5 -89.5z" />
<glyph unicode="u" d="M594 -20q-87 0 -155.5 23t-111.5 60.5t-71.5 89.5t-39.5 106.5t-11 115.5v649h82v-641q0 -50 8 -93.5t30.5 -87.5t57 -75t92.5 -50.5t133 -19.5q55 0 112.5 18.5t107.5 52t82 88.5t32 120v688h82v-1024h-59l-17 156q-148 -176 -354 -176z" />
<glyph unicode="v" d="M614 74l373 950h84l-403 -1024h-107l-403 1024h84z" />
<glyph unicode="w" d="M393 90l189 633h65l189 -633l176 934h80l-197 -1024h-94l-187 627l-186 -627h-94l-197 1024h80z" />
<glyph unicode="x" d="M291 1024l323 -440l324 440h92l-366 -498l387 -526h-93l-344 469l-344 -469h-92l387 526l-366 498h92z" />
<glyph unicode="y" d="M338 -430q-119 0 -205 82v86q99 -94 189 -94q37 0 60.5 5t53 24t57 61t54.5 110l61 156l-405 1024h84l358 -926l352 926h84l-465 -1202q-17 -43 -32 -74t-39.5 -67t-52 -58.5t-67.5 -37.5t-87 -15z" />
<glyph unicode="z" d="M225 954v70h779v-57l-697 -897h717v-70h-819v57l696 897h-676z" />
<glyph unicode="{" d="M889 -225q-346 0 -346 342v321q0 68 -48.5 126.5t-109.5 88t-111 29.5v70q50 0 111 29.5t109.5 87.5t48.5 126v322q0 342 346 342h65v-72h-59q-137 0 -205.5 -69.5t-68.5 -192.5v-324q0 -105 -66.5 -176.5t-169.5 -107.5q103 -36 169.5 -108t66.5 -177v-323 q0 -123 68.5 -193t205.5 -70h59v-71h-65z" />
<glyph unicode="|" d="M655 -225h-77l-3 1884h78z" />
<glyph unicode="}" d="M334 -154q137 0 205.5 70t68.5 193v323q0 105 66.5 177t169.5 108q-103 36 -169.5 107.5t-66.5 176.5v324q0 123 -68.5 192.5t-205.5 69.5h-60v72h66q346 0 346 -342v-322q0 -68 48 -126t109 -87.5t111 -29.5v-70q-36 0 -81.5 -18t-87.5 -49t-70.5 -78.5t-28.5 -98.5 v-321q0 -342 -346 -342h-66v71h60z" />
<glyph unicode="~" d="M137 1247q49 107 125 161t158 54q47 0 102.5 -24.5t98 -54t94 -54t92.5 -24.5q135 0 217 157h68q-49 -107 -124.5 -161t-156.5 -54q-47 0 -102.5 24.5t-98 54.5t-94 54.5t-92.5 24.5q-136 0 -219 -158h-68z" />
<glyph unicode="&#xa0;" />
<glyph unicode="&#xa1;" d="M614 848q-41 0 -69.5 29t-28.5 69q0 41 28.5 69.5t69.5 28.5q40 0 69.5 -28.5t29.5 -69.5q0 -40 -29.5 -69t-69.5 -29zM641 596l14 -324v-682h-82v682l15 324h53z" />
<glyph unicode="&#xa2;" d="M635 51q115 0 208.5 66.5t135.5 185.5h78q-44 -149 -159 -236t-265 -87q-24 0 -60 4l-24 -191h-45l24 199q-161 38 -258.5 180t-97.5 340q0 231 129.5 381.5t331.5 150.5h24l23 187h45l-23 -191q128 -20 222.5 -104.5t132.5 -214.5h-78q-38 104 -114 168t-173 78 l-110 -912q32 -4 53 -4zM252 512q0 -172 78.5 -292t206.5 -154l110 905q-4 2 -12 2q-165 0 -274 -128.5t-109 -332.5z" />
<glyph unicode="&#xa3;" d="M158 68q81 0 121 49t40 155v418h-161v53h161v400q0 132 85 221.5t217 89.5q130 0 213.5 -89.5t83.5 -221.5h-76q0 109 -62 175t-159 66t-160.5 -66.5t-63.5 -174.5v-400h348v-53h-348v-414q0 -156 -78 -204h484q33 0 63 8.5t61 30t49.5 66t18.5 108.5h76 q0 -146 -73.5 -215.5t-194.5 -69.5h-645v68z" />
<glyph unicode="&#xa4;" d="M1090 512q0 -194 -127 -334l147 -143l-43 -43l-145 147q-129 -110 -308 -110q-178 0 -307 110l-145 -147l-43 43l147 143q-127 140 -127 334t127 334l-147 143l43 43l145 -147q129 110 307 110q179 0 308 -110l145 147l43 -43l-147 -143q127 -140 127 -334zM614 100 q172 0 284 118.5t112 293.5t-112 293.5t-284 118.5t-283.5 -118.5t-111.5 -293.5t111.5 -293.5t283.5 -118.5z" />
<glyph unicode="&#xa5;" d="M907 651h-252v-170h252v-53h-252v-428h-82v428h-251v53h251v170h-251v56h251v16l-477 711h90l428 -637l428 637h91l-478 -711v-16h252v-56z" />
<glyph unicode="&#xa9;" d="M614 102q-114 0 -212 42t-170.5 119t-114 194t-41.5 260t41.5 259.5t114 193.5t170.5 119t212 42q115 0 213 -41.5t170.5 -118.5t114 -194t41.5 -260t-41.5 -260t-114 -194t-171 -119t-212.5 -42zM614 152q103 0 192 36.5t156 106t105.5 178t38.5 244.5t-38.5 244.5 t-105.5 178t-156 106t-192 36.5q-102 0 -190.5 -36.5t-156 -106t-106 -178.5t-38.5 -244t38.5 -244t106 -178.5t156 -106t190.5 -36.5zM618 313q-81 0 -146 33t-105.5 89.5t-62 128.5t-21.5 153q0 170 88 286.5t247 116.5q36 0 76 -10.5t87 -35.5t87 -77.5t60 -126.5h-54 q-37 105 -106.5 151t-151.5 46q-71 0 -126 -29t-88 -78.5t-49.5 -111t-16.5 -131.5t16.5 -131.5t49.5 -111t88 -78.5t126 -29q82 0 151.5 45.5t106.5 150.5h54q-20 -74 -60 -126.5t-87.5 -77.5t-87 -35.5t-75.5 -10.5z" />
<glyph unicode="&#xab;" d="M612 940v-92l-358 -336l358 -336v-92l-434 410v36zM1051 940v-92l-359 -336l359 -336v-92l-435 410v36z" />
<glyph unicode="&#xad;" d="M901 477h-573v70h573v-70z" />
<glyph unicode="&#xae;" d="M614 102q-114 0 -212 42t-170.5 119t-114 194t-41.5 260t41.5 259.5t114 193.5t170.5 119t212 42q115 0 213 -41.5t170.5 -118.5t114 -194t41.5 -260t-41.5 -260t-114 -194t-171 -119t-212.5 -42zM614 152q103 0 192 36.5t156 106t105.5 178t38.5 244.5t-38.5 244.5 t-105.5 178t-156 106t-192 36.5q-102 0 -190.5 -36.5t-156 -106t-106 -178.5t-38.5 -244t38.5 -244t106 -178.5t156 -106t190.5 -36.5zM887 885q0 -29 -9 -57t-30.5 -57.5t-66 -51t-107.5 -27.5l190 -338h-55l-188 332h-170v-332h-52v727h222q79 0 135 -19.5t82.5 -51.5 t37.5 -62.5t11 -62.5zM621 733q116 0 164.5 44.5t48.5 107.5q0 61 -49 105t-164 44h-170v-301h170z" />
<glyph unicode="&#xb0;" d="M473 928q-115 0 -188.5 77.5t-73.5 186.5q0 112 73 190t189 78q113 0 185.5 -78.5t72.5 -189.5q0 -109 -72.5 -186.5t-185.5 -77.5zM473 991q86 0 140.5 58t54.5 143q0 88 -53.5 146.5t-141.5 58.5q-90 0 -144.5 -58.5t-54.5 -146.5q0 -86 54.5 -143.5t144.5 -57.5z" />
<glyph unicode="&#xb1;" d="M649 264h-69v332h-416v70h416v329h69v-329h416v-70h-416v-332zM1065 29h-901v69h901v-69z" />
<glyph unicode="&#xb7;" d="M614 618q-41 0 -69.5 29t-28.5 70q0 40 28.5 69t69.5 29q40 0 69.5 -29t29.5 -69q0 -41 -29.5 -70t-69.5 -29z" />
<glyph unicode="&#xbb;" d="M178 846v94l434 -410v-36l-434 -410v94l359 334zM616 846v94l435 -410v-36l-435 -410v94l359 334z" />
<glyph unicode="&#xbf;" d="M670 1044q41 0 68.5 -28.5t27.5 -69.5q0 -40 -27.5 -69t-68.5 -29t-70 29t-29 69q0 41 29 69.5t70 28.5zM244 -102q0 66 21.5 119.5t55.5 91t75.5 72t82.5 71.5t75 80.5t55.5 109t21.5 146.5h78q0 -86 -21 -155.5t-55 -115.5t-74.5 -85.5t-81.5 -73t-75 -68t-55 -81 t-21 -103.5q0 -109 81.5 -186.5t208.5 -77.5q96 0 171 49.5t106.5 134.5t3.5 182h76q30 -113 -12 -215.5t-136 -162.5t-211 -60q-163 0 -266.5 96.5t-103.5 231.5z" />
<glyph unicode="&#xc0;" d="M645 1577h-61l-197 211h102zM182 0h-86l463 1434h111l463 -1434h-86l-132 414h-602zM332 483h565l-283 881z" />
<glyph unicode="&#xc1;" d="M645 1577h-61l155 211h103zM182 0h-86l463 1434h111l463 -1434h-86l-132 414h-602zM332 483h565l-283 881z" />
<glyph unicode="&#xc2;" d="M913 1577h-92l-207 213l-206 -213h-93l256 246h86zM182 0h-86l463 1434h111l463 -1434h-86l-132 414h-602zM332 483h565l-283 881z" />
<glyph unicode="&#xc3;" d="M276 1571q7 103 61.5 157t135.5 54q43 0 83.5 -24.5t68 -53.5t64 -53.5t71.5 -24.5q58 0 95 41t38 115h59q-7 -103 -60.5 -157t-133.5 -54q-35 0 -68 16t-58.5 38.5t-50 45.5t-53 39t-57.5 16q-58 0 -96 -40.5t-39 -114.5h-60zM182 0h-86l463 1434h111l463 -1434h-86 l-132 414h-602zM332 483h565l-283 881z" />
<glyph unicode="&#xc4;" d="M375 1579q-38 0 -65 27t-27 65t27 65t65 27q39 0 65.5 -26.5t26.5 -65.5t-26.5 -65.5t-65.5 -26.5zM854 1579q-39 0 -65.5 26.5t-26.5 65.5t26.5 65.5t65.5 26.5q38 0 65 -27t27 -65t-27 -65t-65 -27zM182 0h-86l463 1434h111l463 -1434h-86l-132 414h-602zM332 483h565 l-283 881z" />
<glyph unicode="&#xc5;" d="M915 414h-602l-131 -414h-86l455 1411q-62 19 -100.5 71t-38.5 122q0 87 57.5 143.5t144.5 56.5t145 -56.5t58 -143.5q0 -70 -38.5 -122t-100.5 -71l455 -1411h-86zM463 1604q0 -67 43 -109.5t108 -42.5t108.5 42.5t43.5 109.5q0 66 -43.5 108.5t-108.5 42.5t-108 -42.5 t-43 -108.5zM332 483h565l-283 881z" />
<glyph unicode="&#xc6;" d="M1141 1364h-418v-576h377v-69h-377v-649h418v-70h-498v414h-338l-131 -414h-86l463 1434h590v-70zM606 1364l-282 -881h319v881h-37z" />
<glyph unicode="&#xc7;" d="M635 55q300 0 369 363h81q-71 -389 -374 -434q96 -70 96 -177q0 -88 -70.5 -134.5t-167 -36.5t-168.5 71v72q64 -57 146.5 -75.5t143.5 14t61 110.5q0 87 -99 152h-18q-228 0 -360 183.5t-132 553.5t132 553.5t360 183.5q370 0 450 -438h-81q-69 362 -369 362 q-90 0 -162 -36t-129 -112.5t-88 -206.5t-31 -306q0 -142 20.5 -254t57 -188t88.5 -126t112.5 -72t131.5 -22z" />
<glyph unicode="&#xc8;" d="M645 1577h-61l-197 211h102zM1030 1362h-749v-610h708v-70h-708v-610h749v-72h-831v1434h831v-72z" />
<glyph unicode="&#xc9;" d="M645 1577h-61l155 211h103zM1030 1362h-749v-610h708v-70h-708v-610h749v-72h-831v1434h831v-72z" />
<glyph unicode="&#xca;" d="M913 1577h-92l-207 213l-206 -213h-93l256 246h86zM1030 1362h-749v-610h708v-70h-708v-610h749v-72h-831v1434h831v-72z" />
<glyph unicode="&#xcb;" d="M375 1579q-38 0 -65 27t-27 65t27 65t65 27q39 0 65.5 -26.5t26.5 -65.5t-26.5 -65.5t-65.5 -26.5zM854 1579q-39 0 -65.5 26.5t-26.5 65.5t26.5 65.5t65.5 26.5q38 0 65 -27t27 -65t-27 -65t-65 -27zM1030 1362h-749v-610h708v-70h-708v-610h749v-72h-831v1434h831v-72z " />
<glyph unicode="&#xcc;" d="M645 1577h-61l-197 211h102zM573 1362h-415v72h913v-72h-416v-1290h416v-72h-913v72h415v1290z" />
<glyph unicode="&#xcd;" d="M645 1577h-61l155 211h103zM573 1362h-415v72h913v-72h-416v-1290h416v-72h-913v72h415v1290z" />
<glyph unicode="&#xce;" d="M913 1577h-92l-207 213l-206 -213h-93l256 246h86zM573 1362h-415v72h913v-72h-416v-1290h416v-72h-913v72h415v1290z" />
<glyph unicode="&#xcf;" d="M375 1579q-38 0 -65 27t-27 65t27 65t65 27q39 0 65.5 -26.5t26.5 -65.5t-26.5 -65.5t-65.5 -26.5zM854 1579q-39 0 -65.5 26.5t-26.5 65.5t26.5 65.5t65.5 26.5q38 0 65 -27t27 -65t-27 -65t-65 -27zM573 1362h-415v72h913v-72h-416v-1290h416v-72h-913v72h415v1290z " />
<glyph unicode="&#xd0;" d="M498 1434q115 0 199 -17.5t157.5 -64.5t119 -126.5t71.5 -206.5t26 -302t-26 -302.5t-71.5 -207t-119.5 -126t-157.5 -64t-198.5 -17.5h-340v690h-158v53h158v691h340zM494 72q101 0 172 14t135.5 54.5t103.5 111.5t61.5 186.5t22.5 278.5q0 161 -22.5 276.5t-61.5 187 t-103.5 112t-136 55t-171.5 14.5h-254v-619h311v-53h-311v-618h254z" />
<glyph unicode="&#xd1;" d="M276 1571q7 103 61.5 157t135.5 54q43 0 83.5 -24.5t68 -53.5t64 -53.5t71.5 -24.5q58 0 95 41t38 115h59q-7 -103 -60.5 -157t-133.5 -54q-35 0 -68 16t-58.5 38.5t-50 45.5t-53 39t-57.5 16q-58 0 -96 -40.5t-39 -114.5h-60zM991 125v1309h80v-1434h-90l-743 1309 v-1309h-80v1434h90z" />
<glyph unicode="&#xd2;" d="M645 1577h-61l-197 211h102zM614 -20q-247 0 -364 177.5t-117 559.5t117 559.5t364 177.5q249 0 365.5 -176.5t116.5 -560.5q0 -383 -117 -560t-365 -177zM614 55q211 0 305.5 159t94.5 503t-94.5 502.5t-305.5 158.5q-210 0 -304.5 -159t-94.5 -502t95 -502.5 t304 -159.5z" />
<glyph unicode="&#xd3;" d="M645 1577h-61l155 211h103zM614 -20q-247 0 -364 177.5t-117 559.5t117 559.5t364 177.5q249 0 365.5 -176.5t116.5 -560.5q0 -383 -117 -560t-365 -177zM614 55q211 0 305.5 159t94.5 503t-94.5 502.5t-305.5 158.5q-210 0 -304.5 -159t-94.5 -502t95 -502.5t304 -159.5 z" />
<glyph unicode="&#xd4;" d="M913 1577h-92l-207 213l-206 -213h-93l256 246h86zM614 -20q-247 0 -364 177.5t-117 559.5t117 559.5t364 177.5q249 0 365.5 -176.5t116.5 -560.5q0 -383 -117 -560t-365 -177zM614 55q211 0 305.5 159t94.5 503t-94.5 502.5t-305.5 158.5q-210 0 -304.5 -159 t-94.5 -502t95 -502.5t304 -159.5z" />
<glyph unicode="&#xd5;" d="M276 1571q7 103 61.5 157t135.5 54q43 0 83.5 -24.5t68 -53.5t64 -53.5t71.5 -24.5q58 0 95 41t38 115h59q-7 -103 -60.5 -157t-133.5 -54q-35 0 -68 16t-58.5 38.5t-50 45.5t-53 39t-57.5 16q-58 0 -96 -40.5t-39 -114.5h-60zM614 -20q-247 0 -364 177.5t-117 559.5 t117 559.5t364 177.5q249 0 365.5 -176.5t116.5 -560.5q0 -383 -117 -560t-365 -177zM614 55q211 0 305.5 159t94.5 503t-94.5 502.5t-305.5 158.5q-210 0 -304.5 -159t-94.5 -502t95 -502.5t304 -159.5z" />
<glyph unicode="&#xd6;" d="M375 1579q-38 0 -65 27t-27 65t27 65t65 27q39 0 65.5 -26.5t26.5 -65.5t-26.5 -65.5t-65.5 -26.5zM854 1579q-39 0 -65.5 26.5t-26.5 65.5t26.5 65.5t65.5 26.5q38 0 65 -27t27 -65t-27 -65t-65 -27zM614 -20q-247 0 -364 177.5t-117 559.5t117 559.5t364 177.5 q249 0 365.5 -176.5t116.5 -560.5q0 -383 -117 -560t-365 -177zM614 55q211 0 305.5 159t94.5 503t-94.5 502.5t-305.5 158.5q-210 0 -304.5 -159t-94.5 -502t95 -502.5t304 -159.5z" />
<glyph unicode="&#xd7;" d="M322 168l-52 51l295 293l-295 291l54 51l290 -293l293 293l49 -51l-292 -291l294 -293l-51 -51l-293 295z" />
<glyph unicode="&#xd8;" d="M973 1288q123 -181 123 -571q0 -383 -117 -560t-365 -177q-208 0 -323 124l-144 -247h-57l168 290q-125 177 -125 570q0 382 117 559.5t364 177.5q214 0 324 -125l143 248h58zM215 717q0 -327 88 -490l592 1026q-92 125 -281 125q-210 0 -304.5 -159t-94.5 -502z M1014 717q0 334 -88 491l-592 -1028q94 -125 280 -125q211 0 305.5 159t94.5 503z" />
<glyph unicode="&#xd9;" d="M645 1577h-61l-197 211h102zM614 -20q-130 0 -220 38t-141 114.5t-73 178t-22 242.5v881h82v-881q0 -125 17.5 -212.5t59.5 -153t115.5 -97t181.5 -31.5t182 31.5t116 97t59.5 153t17.5 212.5v881h82v-881q0 -141 -22 -242.5t-73.5 -178t-141.5 -114.5t-220 -38z" />
<glyph unicode="&#xda;" d="M645 1577h-61l155 211h103zM614 -20q-130 0 -220 38t-141 114.5t-73 178t-22 242.5v881h82v-881q0 -125 17.5 -212.5t59.5 -153t115.5 -97t181.5 -31.5t182 31.5t116 97t59.5 153t17.5 212.5v881h82v-881q0 -141 -22 -242.5t-73.5 -178t-141.5 -114.5t-220 -38z" />
<glyph unicode="&#xdb;" d="M913 1577h-92l-207 213l-206 -213h-93l256 246h86zM614 -20q-130 0 -220 38t-141 114.5t-73 178t-22 242.5v881h82v-881q0 -125 17.5 -212.5t59.5 -153t115.5 -97t181.5 -31.5t182 31.5t116 97t59.5 153t17.5 212.5v881h82v-881q0 -141 -22 -242.5t-73.5 -178 t-141.5 -114.5t-220 -38z" />
<glyph unicode="&#xdc;" d="M375 1579q-38 0 -65 27t-27 65t27 65t65 27q39 0 65.5 -26.5t26.5 -65.5t-26.5 -65.5t-65.5 -26.5zM854 1579q-39 0 -65.5 26.5t-26.5 65.5t26.5 65.5t65.5 26.5q38 0 65 -27t27 -65t-27 -65t-65 -27zM614 -20q-130 0 -220 38t-141 114.5t-73 178t-22 242.5v881h82v-881 q0 -125 17.5 -212.5t59.5 -153t115.5 -97t181.5 -31.5t182 31.5t116 97t59.5 153t17.5 212.5v881h82v-881q0 -141 -22 -242.5t-73.5 -178t-141.5 -114.5t-220 -38z" />
<glyph unicode="&#xdd;" d="M645 1577h-61l155 211h103zM182 1434l432 -709l433 709h86l-478 -781v-653h-82v653l-477 781h86z" />
<glyph unicode="&#xde;" d="M240 1233h401q122 0 217.5 -41t154 -130t58.5 -216q0 -126 -59 -215.5t-154.5 -130.5t-216.5 -41h-401v-459h-82v1434h82v-201zM633 530q69 0 130.5 17.5t113 54t82 99.5t30.5 145t-30.5 145t-82 99t-113 53.5t-130.5 17.5h-393v-631h393z" />
<glyph unicode="&#xdf;" d="M612 -20q-78 0 -129 20v68q56 -19 121 -19q157 0 258 100t101 254q0 110 -54.5 194t-140.5 126t-188 43v53q135 5 228 81.5t93 197.5q0 124 -86.5 205t-212.5 81q-102 0 -181 -52.5t-118 -133.5t-39 -174v-1024h-80v1024q0 78 28 154t79.5 138t133 100t179.5 38 q160 0 269.5 -99t109.5 -251q0 -115 -75.5 -200.5t-176.5 -106.5q37 -11 72 -27t81 -49t79.5 -74t57 -106t23.5 -142q0 -183 -121 -301t-311 -118z" />
<glyph unicode="&#xe0;" d="M727 1188h-61l-222 307h95zM549 -20q-167 0 -255.5 87t-88.5 212q0 138 98.5 226.5t263 92t377.5 -105.5v200q0 93 -45 159t-113.5 95t-150.5 29q-137 0 -225 -81.5t-88 -176.5h-76q0 134 118 230.5t273 96.5q172 0 279.5 -95.5t107.5 -258.5v-690h-59l-17 156 q-68 -80 -171.5 -128t-227.5 -48zM545 47q103 0 194 31t148 89.5t57 131.5v125q-106 57 -201.5 84.5t-166 25.5t-127.5 -22.5t-92 -57.5t-53.5 -81t-18.5 -92q0 -107 77 -170.5t183 -63.5z" />
<glyph unicode="&#xe1;" d="M686 1188h-61l188 307h94zM549 -20q-167 0 -255.5 87t-88.5 212q0 138 98.5 226.5t263 92t377.5 -105.5v200q0 93 -45 159t-113.5 95t-150.5 29q-137 0 -225 -81.5t-88 -176.5h-76q0 134 118 230.5t273 96.5q172 0 279.5 -95.5t107.5 -258.5v-690h-59l-17 156 q-68 -80 -171.5 -128t-227.5 -48zM545 47q103 0 194 31t148 89.5t57 131.5v125q-106 57 -201.5 84.5t-166 25.5t-127.5 -22.5t-92 -57.5t-53.5 -81t-18.5 -92q0 -107 77 -170.5t183 -63.5z" />
<glyph unicode="&#xe2;" d="M936 1188h-76l-205 262l-204 -262h-76l248 307h65zM549 -20q-167 0 -255.5 87t-88.5 212q0 138 98.5 226.5t263 92t377.5 -105.5v200q0 93 -45 159t-113.5 95t-150.5 29q-137 0 -225 -81.5t-88 -176.5h-76q0 134 118 230.5t273 96.5q172 0 279.5 -95.5t107.5 -258.5v-690 h-59l-17 156q-68 -80 -171.5 -128t-227.5 -48zM545 47q103 0 194 31t148 89.5t57 131.5v125q-106 57 -201.5 84.5t-166 25.5t-127.5 -22.5t-92 -57.5t-53.5 -81t-18.5 -92q0 -107 77 -170.5t183 -63.5z" />
<glyph unicode="&#xe3;" d="M317 1182q7 103 61.5 157t135.5 54q43 0 83.5 -24.5t68 -53.5t64 -53.5t71.5 -24.5q58 0 95 41t38 115h59q-7 -103 -60.5 -157t-133.5 -54q-35 0 -68 16t-58.5 39t-50 45.5t-53 38.5t-57.5 16q-58 0 -96 -40.5t-39 -114.5h-60zM549 -20q-167 0 -255.5 87t-88.5 212 q0 138 98.5 226.5t263 92t377.5 -105.5v200q0 93 -45 159t-113.5 95t-150.5 29q-137 0 -225 -81.5t-88 -176.5h-76q0 134 118 230.5t273 96.5q172 0 279.5 -95.5t107.5 -258.5v-690h-59l-17 156q-68 -80 -171.5 -128t-227.5 -48zM545 47q103 0 194 31t148 89.5t57 131.5v125 q-106 57 -201.5 84.5t-166 25.5t-127.5 -22.5t-92 -57.5t-53.5 -81t-18.5 -92q0 -107 77 -170.5t183 -63.5z" />
<glyph unicode="&#xe4;" d="M416 1210q-38 0 -65 27.5t-27 65.5t27 65t65 27q39 0 65.5 -26.5t26.5 -65.5t-26.5 -66t-65.5 -27zM895 1210q-39 0 -65.5 27t-26.5 66t26.5 65.5t65.5 26.5q38 0 65 -27t27 -65t-27 -65.5t-65 -27.5zM549 -20q-167 0 -255.5 87t-88.5 212q0 138 98.5 226.5t263 92 t377.5 -105.5v200q0 93 -45 159t-113.5 95t-150.5 29q-137 0 -225 -81.5t-88 -176.5h-76q0 134 118 230.5t273 96.5q172 0 279.5 -95.5t107.5 -258.5v-690h-59l-17 156q-68 -80 -171.5 -128t-227.5 -48zM545 47q103 0 194 31t148 89.5t57 131.5v125q-106 57 -201.5 84.5 t-166 25.5t-127.5 -22.5t-92 -57.5t-53.5 -81t-18.5 -92q0 -107 77 -170.5t183 -63.5z" />
<glyph unicode="&#xe5;" d="M655 1161q-87 0 -144.5 57.5t-57.5 145.5t57.5 145.5t144.5 57.5t145 -58t58 -145t-58 -145t-145 -58zM655 1212q65 0 108.5 42.5t43.5 109.5t-43.5 109.5t-108.5 42.5t-108 -42.5t-43 -109.5t43 -109.5t108 -42.5zM549 -20q-167 0 -255.5 87t-88.5 212q0 138 98.5 226.5 t263 92t377.5 -105.5v200q0 93 -45 159t-113.5 95t-150.5 29q-137 0 -225 -81.5t-88 -176.5h-76q0 134 118 230.5t273 96.5q172 0 279.5 -95.5t107.5 -258.5v-690h-59l-17 156q-68 -80 -171.5 -128t-227.5 -48zM545 47q103 0 194 31t148 89.5t57 131.5v125 q-106 57 -201.5 84.5t-166 25.5t-127.5 -22.5t-92 -57.5t-53.5 -81t-18.5 -92q0 -107 77 -170.5t183 -63.5z" />
<glyph unicode="&#xe6;" d="M360 -20q-116 0 -178.5 87.5t-62.5 213.5q0 136 56 222.5t157.5 92.5t242.5 -104v204q0 135 -50.5 207t-118.5 72q-60 0 -103.5 -41.5t-62.5 -98.5t-19 -118h-61q0 139 68.5 233t177.5 94q82 0 141.5 -64t79.5 -179q33 113 93 178t140 65q59 0 108.5 -40t79.5 -101.5 t46 -129t16 -128.5q0 -95 -54.5 -131.5t-156.5 -36.5h-246q0 -186 56 -308t149 -122q69 0 116.5 76t59.5 174h64q-22 -156 -90 -236.5t-150 -80.5q-155 0 -231 225q-39 -109 -113.5 -167t-153.5 -58zM887 535q75 0 116 25t41 89q0 70 -21 143.5t-64.5 128t-98.5 54.5 q-53 0 -94 -41.5t-65 -108t-36 -141t-12 -149.5h234zM362 47q81 0 146 75t65 177v125q-81 66 -148.5 91t-110.5 13t-73 -49.5t-42.5 -88t-12.5 -109.5q0 -110 49.5 -172t126.5 -62z" />
<glyph unicode="&#xe7;" d="M633 51q118 0 209 67t133 189h82q-38 -130 -130.5 -214.5t-217.5 -106.5q98 -77 98 -179q0 -88 -70.5 -134.5t-167 -36.5t-168.5 71v72q64 -57 146.5 -75.5t143.5 14t61 110.5q0 87 -99 152h-20q-202 0 -331.5 150.5t-129.5 381.5t129.5 381.5t331.5 150.5 q151 0 265.5 -87.5t158.5 -239.5h-82q-42 122 -133 189t-209 67q-163 0 -271 -129t-108 -332t108 -332t271 -129z" />
<glyph unicode="&#xe8;" d="M686 1188h-61l-222 307h95zM629 -20q-131 0 -236 70t-163 190t-58 266q0 150 53.5 271t158.5 194t245 73q82 0 153.5 -26.5t120.5 -69t85 -95.5t52.5 -106.5t16.5 -101.5q0 -51 -19.5 -86t-55.5 -53t-78 -25.5t-97 -7.5h-555q0 -105 46 -201.5t134 -159.5t197 -63 q71 0 130 21.5t98 58t64.5 79t36.5 89.5h78q-25 -106 -87.5 -179.5t-143.5 -105.5t-176 -32zM786 539q189 0 189 110q0 52 -23.5 108t-65.5 105.5t-109.5 81t-147.5 31.5q-76 0 -140 -28t-107 -72.5t-73 -102.5t-43.5 -117t-13.5 -116h534z" />
<glyph unicode="&#xe9;" d="M645 1188h-61l188 307h94zM629 -20q-131 0 -236 70t-163 190t-58 266q0 150 53.5 271t158.5 194t245 73q82 0 153.5 -26.5t120.5 -69t85 -95.5t52.5 -106.5t16.5 -101.5q0 -51 -19.5 -86t-55.5 -53t-78 -25.5t-97 -7.5h-555q0 -105 46 -201.5t134 -159.5t197 -63 q71 0 130 21.5t98 58t64.5 79t36.5 89.5h78q-25 -106 -87.5 -179.5t-143.5 -105.5t-176 -32zM786 539q189 0 189 110q0 52 -23.5 108t-65.5 105.5t-109.5 81t-147.5 31.5q-76 0 -140 -28t-107 -72.5t-73 -102.5t-43.5 -117t-13.5 -116h534z" />
<glyph unicode="&#xea;" d="M895 1188h-76l-205 262l-204 -262h-76l248 307h65zM629 -20q-131 0 -236 70t-163 190t-58 266q0 150 53.5 271t158.5 194t245 73q82 0 153.5 -26.5t120.5 -69t85 -95.5t52.5 -106.5t16.5 -101.5q0 -51 -19.5 -86t-55.5 -53t-78 -25.5t-97 -7.5h-555q0 -105 46 -201.5 t134 -159.5t197 -63q71 0 130 21.5t98 58t64.5 79t36.5 89.5h78q-25 -106 -87.5 -179.5t-143.5 -105.5t-176 -32zM786 539q189 0 189 110q0 52 -23.5 108t-65.5 105.5t-109.5 81t-147.5 31.5q-76 0 -140 -28t-107 -72.5t-73 -102.5t-43.5 -117t-13.5 -116h534z" />
<glyph unicode="&#xeb;" d="M375 1210q-38 0 -65 27.5t-27 65.5t27 65t65 27q39 0 65.5 -26.5t26.5 -65.5t-26.5 -66t-65.5 -27zM854 1210q-39 0 -65.5 27t-26.5 66t26.5 65.5t65.5 26.5q38 0 65 -27t27 -65t-27 -65.5t-65 -27.5zM629 -20q-131 0 -236 70t-163 190t-58 266q0 150 53.5 271t158.5 194 t245 73q82 0 153.5 -26.5t120.5 -69t85 -95.5t52.5 -106.5t16.5 -101.5q0 -51 -19.5 -86t-55.5 -53t-78 -25.5t-97 -7.5h-555q0 -105 46 -201.5t134 -159.5t197 -63q71 0 130 21.5t98 58t64.5 79t36.5 89.5h78q-25 -106 -87.5 -179.5t-143.5 -105.5t-176 -32zM786 539 q189 0 189 110q0 52 -23.5 108t-65.5 105.5t-109.5 81t-147.5 31.5q-76 0 -140 -28t-107 -72.5t-73 -102.5t-43.5 -117t-13.5 -116h534z" />
<glyph unicode="&#xec;" d="M727 1188h-61l-222 307h95zM657 952h-335v72h413v-952h336v-72h-872v72h458v880z" />
<glyph unicode="&#xed;" d="M686 1188h-61l188 307h94zM657 952h-335v72h413v-952h336v-72h-872v72h458v880z" />
<glyph unicode="&#xee;" d="M936 1188h-76l-205 262l-204 -262h-76l248 307h65zM657 952h-335v72h413v-952h336v-72h-872v72h458v880z" />
<glyph unicode="&#xef;" d="M416 1210q-38 0 -65 27.5t-27 65.5t27 65t65 27q39 0 65.5 -26.5t26.5 -65.5t-26.5 -66t-65.5 -27zM895 1210q-39 0 -65.5 27t-26.5 66t26.5 65.5t65.5 26.5q38 0 65 -27t27 -65t-27 -65.5t-65 -27.5zM657 952h-335v72h413v-952h336v-72h-872v72h458v880z" />
<glyph unicode="&#xf0;" d="M623 -20q-196 0 -321.5 150.5t-125.5 381.5t124.5 381.5t317.5 150.5q108 0 198 -47.5t155 -128.5v338h-299v49h299v179h82v-179h157v-49h-157v-1206h-60l-16 156q-148 -176 -354 -176zM635 57q52 0 108 17t108.5 50.5t86 92.5t33.5 133v324q0 74 -33.5 133t-86 92.5 t-108.5 50.5t-108 17q-116 0 -204 -66.5t-130.5 -168.5t-42.5 -220t42.5 -220t130.5 -168.5t204 -66.5z" />
<glyph unicode="&#xf1;" d="M276 1182q7 103 61.5 157t135.5 54q43 0 83.5 -24.5t68 -53.5t64 -53.5t71.5 -24.5q58 0 95 41t38 115h59q-7 -103 -60.5 -157t-133.5 -54q-35 0 -68 16t-58.5 39t-50 45.5t-53 38.5t-57.5 16q-58 0 -96 -40.5t-39 -114.5h-60zM281 868q148 176 354 176q87 0 155.5 -23 t111.5 -60.5t71.5 -89.5t39.5 -106.5t11 -115.5v-649h-82v641q0 50 -8 93.5t-30.5 87.5t-57 75t-92.5 50.5t-133 19.5q-55 0 -112.5 -18.5t-107.5 -52t-82 -88.5t-32 -120v-688h-82v1024h59z" />
<glyph unicode="&#xf2;" d="M686 1188h-61l-222 307h95zM614 -20q-202 0 -331 150.5t-129 381.5t129 381.5t331 150.5q203 0 332 -149.5t129 -382.5q0 -231 -129 -381.5t-332 -150.5zM614 55q165 0 272 125.5t107 331.5t-107 331.5t-272 125.5q-164 0 -271 -125.5t-107 -331.5t107 -331.5t271 -125.5 z" />
<glyph unicode="&#xf3;" d="M645 1188h-61l188 307h94zM614 -20q-202 0 -331 150.5t-129 381.5t129 381.5t331 150.5q203 0 332 -149.5t129 -382.5q0 -231 -129 -381.5t-332 -150.5zM614 55q165 0 272 125.5t107 331.5t-107 331.5t-272 125.5q-164 0 -271 -125.5t-107 -331.5t107 -331.5t271 -125.5z " />
<glyph unicode="&#xf4;" d="M895 1188h-76l-205 262l-204 -262h-76l248 307h65zM614 -20q-202 0 -331 150.5t-129 381.5t129 381.5t331 150.5q203 0 332 -149.5t129 -382.5q0 -231 -129 -381.5t-332 -150.5zM614 55q165 0 272 125.5t107 331.5t-107 331.5t-272 125.5q-164 0 -271 -125.5t-107 -331.5 t107 -331.5t271 -125.5z" />
<glyph unicode="&#xf5;" d="M276 1182q7 103 61.5 157t135.5 54q43 0 83.5 -24.5t68 -53.5t64 -53.5t71.5 -24.5q58 0 95 41t38 115h59q-7 -103 -60.5 -157t-133.5 -54q-35 0 -68 16t-58.5 39t-50 45.5t-53 38.5t-57.5 16q-58 0 -96 -40.5t-39 -114.5h-60zM614 -20q-202 0 -331 150.5t-129 381.5 t129 381.5t331 150.5q203 0 332 -149.5t129 -382.5q0 -231 -129 -381.5t-332 -150.5zM614 55q165 0 272 125.5t107 331.5t-107 331.5t-272 125.5q-164 0 -271 -125.5t-107 -331.5t107 -331.5t271 -125.5z" />
<glyph unicode="&#xf6;" d="M375 1210q-38 0 -65 27.5t-27 65.5t27 65t65 27q39 0 65.5 -26.5t26.5 -65.5t-26.5 -66t-65.5 -27zM854 1210q-39 0 -65.5 27t-26.5 66t26.5 65.5t65.5 26.5q38 0 65 -27t27 -65t-27 -65.5t-65 -27.5zM614 -20q-202 0 -331 150.5t-129 381.5t129 381.5t331 150.5 q203 0 332 -149.5t129 -382.5q0 -231 -129 -381.5t-332 -150.5zM614 55q165 0 272 125.5t107 331.5t-107 331.5t-272 125.5q-164 0 -271 -125.5t-107 -331.5t107 -331.5t271 -125.5z" />
<glyph unicode="&#xf7;" d="M614 854q-41 0 -67.5 27.5t-26.5 66.5q0 40 26.5 68t67.5 28q40 0 67.5 -28t27.5 -68q0 -38 -27.5 -66t-67.5 -28zM1065 479h-901v66h901v-66zM614 -20q-41 0 -67.5 27.5t-26.5 66.5t27 67.5t67 28.5q39 0 67 -28.5t28 -67.5q0 -38 -27.5 -66t-67.5 -28z" />
<glyph unicode="&#xf8;" d="M893 946q87 -71 134.5 -183.5t47.5 -250.5q0 -231 -129 -381.5t-332 -150.5q-133 0 -237 69l-123 -213h-57l139 242q-86 71 -134 184.5t-48 249.5q0 231 129 381.5t331 150.5q132 0 238 -67l123 211h57zM233 512q0 -238 142 -367l440 766q-91 62 -201 62 q-164 0 -272.5 -127t-108.5 -334zM614 51q165 0 273 126.5t108 334.5q0 118 -36.5 212.5t-102.5 154.5l-442 -766q91 -62 200 -62z" />
<glyph unicode="&#xf9;" d="M686 1188h-61l-222 307h95zM594 -20q-87 0 -155.5 23t-111.5 60.5t-71.5 89.5t-39.5 106.5t-11 115.5v649h82v-641q0 -50 8 -93.5t30.5 -87.5t57 -75t92.5 -50.5t133 -19.5q55 0 112.5 18.5t107.5 52t82 88.5t32 120v688h82v-1024h-59l-17 156q-148 -176 -354 -176z" />
<glyph unicode="&#xfa;" d="M645 1188h-61l188 307h94zM594 -20q-87 0 -155.5 23t-111.5 60.5t-71.5 89.5t-39.5 106.5t-11 115.5v649h82v-641q0 -50 8 -93.5t30.5 -87.5t57 -75t92.5 -50.5t133 -19.5q55 0 112.5 18.5t107.5 52t82 88.5t32 120v688h82v-1024h-59l-17 156q-148 -176 -354 -176z" />
<glyph unicode="&#xfb;" d="M895 1188h-76l-205 262l-204 -262h-76l248 307h65zM594 -20q-87 0 -155.5 23t-111.5 60.5t-71.5 89.5t-39.5 106.5t-11 115.5v649h82v-641q0 -50 8 -93.5t30.5 -87.5t57 -75t92.5 -50.5t133 -19.5q55 0 112.5 18.5t107.5 52t82 88.5t32 120v688h82v-1024h-59l-17 156 q-148 -176 -354 -176z" />
<glyph unicode="&#xfc;" d="M375 1210q-38 0 -65 27.5t-27 65.5t27 65t65 27q39 0 65.5 -26.5t26.5 -65.5t-26.5 -66t-65.5 -27zM854 1210q-39 0 -65.5 27t-26.5 66t26.5 65.5t65.5 26.5q38 0 65 -27t27 -65t-27 -65.5t-65 -27.5zM594 -20q-87 0 -155.5 23t-111.5 60.5t-71.5 89.5t-39.5 106.5 t-11 115.5v649h82v-641q0 -50 8 -93.5t30.5 -87.5t57 -75t92.5 -50.5t133 -19.5q55 0 112.5 18.5t107.5 52t82 88.5t32 120v688h82v-1024h-59l-17 156q-148 -176 -354 -176z" />
<glyph unicode="&#xfd;" d="M645 1188h-61l188 307h94zM338 -430q-119 0 -205 82v86q99 -94 189 -94q37 0 60.5 5t53 24t57 61t54.5 110l61 156l-405 1024h84l358 -926l352 926h84l-465 -1202q-17 -43 -32 -74t-39.5 -67t-52 -58.5t-67.5 -37.5t-87 -15z" />
<glyph unicode="&#xfe;" d="M258 868q65 81 154.5 128.5t197.5 47.5q193 0 318 -150.5t125 -381.5t-125 -381.5t-318 -150.5q-108 0 -197.5 47.5t-154.5 128.5v-566h-82v1844h82v-566zM594 57q116 0 204 66.5t130.5 168.5t42.5 220t-42.5 220t-130.5 168.5t-204 66.5q-52 0 -108 -17t-108.5 -50.5 t-86 -92.5t-33.5 -133v-324q0 -74 33.5 -133t86 -92.5t108.5 -50.5t108 -17z" />
<glyph unicode="&#xff;" d="M375 1210q-38 0 -65 27.5t-27 65.5t27 65t65 27q39 0 65.5 -26.5t26.5 -65.5t-26.5 -66t-65.5 -27zM854 1210q-39 0 -65.5 27t-26.5 66t26.5 65.5t65.5 26.5q38 0 65 -27t27 -65t-27 -65.5t-65 -27.5zM338 -430q-119 0 -205 82v86q99 -94 189 -94q37 0 60.5 5t53 24 t57 61t54.5 110l61 156l-405 1024h84l358 -926l352 926h84l-465 -1202q-17 -43 -32 -74t-39.5 -67t-52 -58.5t-67.5 -37.5t-87 -15z" />
<glyph unicode="&#x131;" d="M657 952h-335v72h413v-952h336v-72h-872v72h458v880z" />
<glyph unicode="&#x152;" d="M639 0q-246 0 -375 183t-129 534t129 534t375 183h455v-70h-402v-612h361v-70h-361v-612h402v-70h-455zM616 1364q-83 0 -153 -37t-126 -112t-88 -202.5t-32 -295.5t32 -295.5t88 -202.5t126 -112t153 -37v1294z" />
<glyph unicode="&#x153;" d="M379 -20q-82 0 -141.5 69.5t-89 188.5t-29.5 274t29.5 274t89 188.5t141.5 69.5q89 0 148.5 -76t86.5 -214q38 148 98 219t146 71q60 0 110 -40t79.5 -101.5t46 -129t16.5 -128.5q0 -95 -55 -131.5t-160 -36.5h-242q-1 -70 10.5 -142t34.5 -137.5t64.5 -107t93.5 -41.5 q68 0 116.5 75.5t59.5 172.5h66q-22 -155 -91.5 -236t-150.5 -81q-86 0 -145.5 71t-96.5 219q-28 -139 -87.5 -214.5t-147.5 -75.5zM379 49q93 0 143.5 123.5t50.5 339.5t-50.5 339.5t-143.5 123.5q-90 0 -141.5 -124t-51.5 -339t51.5 -339t141.5 -124zM885 535 q75 0 116 25.5t41 88.5q0 69 -20.5 142.5t-64.5 128.5t-99 55q-53 0 -94.5 -41.5t-64.5 -108.5t-34.5 -141t-11.5 -149h232z" />
<glyph unicode="&#x174;" d="M913 1577h-92l-207 213l-206 -213h-93l256 246h86zM336 113l248 891h61l248 -891l158 1321h82l-181 -1434h-86l-252 883l-252 -883h-86l-180 1434h82z" />
<glyph unicode="&#x175;" d="M895 1188h-76l-205 262l-204 -262h-76l248 307h65zM393 90l189 633h65l189 -633l176 934h80l-197 -1024h-94l-187 627l-186 -627h-94l-197 1024h80z" />
<glyph unicode="&#x176;" d="M913 1577h-92l-207 213l-206 -213h-93l256 246h86zM182 1434l432 -709l433 709h86l-478 -781v-653h-82v653l-477 781h86z" />
<glyph unicode="&#x177;" d="M895 1188h-76l-205 262l-204 -262h-76l248 307h65zM338 -430q-119 0 -205 82v86q99 -94 189 -94q37 0 60.5 5t53 24t57 61t54.5 110l61 156l-405 1024h84l358 -926l352 926h84l-465 -1202q-17 -43 -32 -74t-39.5 -67t-52 -58.5t-67.5 -37.5t-87 -15z" />
<glyph unicode="&#x178;" d="M375 1579q-38 0 -65 27t-27 65t27 65t65 27q39 0 65.5 -26.5t26.5 -65.5t-26.5 -65.5t-65.5 -26.5zM854 1579q-39 0 -65.5 26.5t-26.5 65.5t26.5 65.5t65.5 26.5q38 0 65 -27t27 -65t-27 -65t-65 -27zM182 1434l432 -709l433 709h86l-478 -781v-653h-82v653l-477 781h86z " />
<glyph unicode="&#x300;" horiz-adv-x="0" d="M-543 1188h-61l-221 307h94z" />
<glyph unicode="&#x301;" horiz-adv-x="0" d="M-584 1188h-61l188 307h95z" />
<glyph unicode="&#x302;" horiz-adv-x="0" d="M-334 1188h-76l-204 262l-205 -262h-76l248 307h65z" />
<glyph unicode="&#x303;" horiz-adv-x="0" d="M-952 1182q7 103 61.5 157t134.5 54q43 0 83.5 -24.5t68 -53.5t64 -53.5t71.5 -24.5q58 0 95 41t38 115h60q-7 -103 -61 -157t-134 -54q-35 0 -68 16t-58.5 39t-50 45.5t-53 38.5t-57.5 16q-58 0 -96 -40.5t-39 -114.5h-59z" />
<glyph unicode="&#x307;" horiz-adv-x="0" d="M-614 1210q-39 0 -66 27t-27 66t26.5 65.5t66.5 26.5q38 0 65 -27t27 -65t-27 -65.5t-65 -27.5z" />
<glyph unicode="&#x308;" horiz-adv-x="0" d="M-854 1210q-38 0 -65 27.5t-27 65.5t27 65t65 27q39 0 65.5 -26.5t26.5 -65.5t-26.5 -66t-65.5 -27zM-375 1210q-39 0 -65.5 27t-26.5 66t26.5 65.5t65.5 26.5q38 0 65 -27t27 -65t-27 -65.5t-65 -27.5z" />
<glyph unicode="&#x30a;" horiz-adv-x="0" d="M-614 1161q-87 0 -145 58t-58 145t58 145t145 58q86 0 144 -57.5t58 -145.5t-58 -145.5t-144 -57.5zM-614 1212q65 0 108 42.5t43 109.5t-43 109.5t-108 42.5t-108.5 -42.5t-43.5 -109.5t43.5 -109.5t108.5 -42.5z" />
<glyph unicode="&#x327;" horiz-adv-x="0" d="M-831 -221q64 -57 146.5 -75.5t143 14t60.5 110.5q0 96 -129 172l65 2l13 -10q14 -10 21 -16.5t22 -20t24 -28t19 -33t15 -41t5 -46.5q0 -88 -70.5 -134.5t-166.5 -36.5t-168 71v72z" />
<glyph unicode="&#x335;" horiz-adv-x="0" d="M-494 485h-550v54h550v-54z" />
<glyph unicode="&#x337;" horiz-adv-x="0" d="M-975 -164h-57l778 1352h57z" />
<glyph unicode="&#x338;" horiz-adv-x="0" d="M-1081 -164h-58l992 1720h57z" />
<glyph unicode="&#x1e80;" d="M645 1577h-61l-197 211h102zM336 113l248 891h61l248 -891l158 1321h82l-181 -1434h-86l-252 883l-252 -883h-86l-180 1434h82z" />
<glyph unicode="&#x1e81;" d="M686 1188h-61l-222 307h95zM393 90l189 633h65l189 -633l176 934h80l-197 -1024h-94l-187 627l-186 -627h-94l-197 1024h80z" />
<glyph unicode="&#x1e82;" d="M645 1577h-61l155 211h103zM336 113l248 891h61l248 -891l158 1321h82l-181 -1434h-86l-252 883l-252 -883h-86l-180 1434h82z" />
<glyph unicode="&#x1e83;" d="M645 1188h-61l188 307h94zM393 90l189 633h65l189 -633l176 934h80l-197 -1024h-94l-187 627l-186 -627h-94l-197 1024h80z" />
<glyph unicode="&#x1e84;" d="M375 1579q-38 0 -65 27t-27 65t27 65t65 27q39 0 65.5 -26.5t26.5 -65.5t-26.5 -65.5t-65.5 -26.5zM854 1579q-39 0 -65.5 26.5t-26.5 65.5t26.5 65.5t65.5 26.5q38 0 65 -27t27 -65t-27 -65t-65 -27zM336 113l248 891h61l248 -891l158 1321h82l-181 -1434h-86l-252 883 l-252 -883h-86l-180 1434h82z" />
<glyph unicode="&#x1e85;" d="M375 1210q-38 0 -65 27.5t-27 65.5t27 65t65 27q39 0 65.5 -26.5t26.5 -65.5t-26.5 -66t-65.5 -27zM854 1210q-39 0 -65.5 27t-26.5 66t26.5 65.5t65.5 26.5q38 0 65 -27t27 -65t-27 -65.5t-65 -27.5zM393 90l189 633h65l189 -633l176 934h80l-197 -1024h-94l-187 627 l-186 -627h-94l-197 1024h80z" />
<glyph unicode="&#x1ef2;" d="M645 1577h-61l-197 211h102zM182 1434l432 -709l433 709h86l-478 -781v-653h-82v653l-477 781h86z" />
<glyph unicode="&#x1ef3;" d="M686 1188h-61l-222 307h95zM338 -430q-119 0 -205 82v86q99 -94 189 -94q37 0 60.5 5t53 24t57 61t54.5 110l61 156l-405 1024h84l358 -926l352 926h84l-465 -1202q-17 -43 -32 -74t-39.5 -67t-52 -58.5t-67.5 -37.5t-87 -15z" />
<glyph unicode="&#x2000;" horiz-adv-x="911" />
<glyph unicode="&#x2001;" horiz-adv-x="1823" />
<glyph unicode="&#x2002;" horiz-adv-x="911" />
<glyph unicode="&#x2003;" horiz-adv-x="1823" />
<glyph unicode="&#x2004;" horiz-adv-x="607" />
<glyph unicode="&#x2005;" horiz-adv-x="455" />
<glyph unicode="&#x2006;" horiz-adv-x="303" />
<glyph unicode="&#x2007;" horiz-adv-x="303" />
<glyph unicode="&#x2008;" horiz-adv-x="227" />
<glyph unicode="&#x2009;" horiz-adv-x="364" />
<glyph unicode="&#x200a;" horiz-adv-x="101" />
<glyph unicode="&#x2010;" d="M901 477h-573v70h573v-70z" />
<glyph unicode="&#x2011;" d="M901 477h-573v70h573v-70z" />
<glyph unicode="&#x2012;" d="M901 477h-573v70h573v-70z" />
<glyph unicode="&#x2013;" d="M1065 477h-901v70h901v-70z" />
<glyph unicode="&#x2014;" d="M1229 477h-1229v70h1229v-70z" />
<glyph unicode="&#x2018;" d="M569 1454l191 -430h-70l-223 430h102z" />
<glyph unicode="&#x2019;" d="M537 1024h-70l190 430h103z" />
<glyph unicode="&#x201a;" d="M535 -170h-70l192 436h103z" />
<glyph unicode="&#x201c;" d="M414 1454l192 -436h-69l-226 436h103zM725 1454l190 -436h-69l-223 436h102z" />
<glyph unicode="&#x201d;" d="M381 1018h-70l191 436h102zM690 1018h-69l192 436h102z" />
<glyph unicode="&#x201e;" d="M379 -170h-70l191 436h102zM688 -170h-70l193 436h102z" />
<glyph unicode="&#x2022;" d="M614 541q-70 0 -119 50t-49 120q0 72 49 122t119 50q73 0 120.5 -49.5t47.5 -122.5q0 -70 -48 -120t-120 -50z" />
<glyph unicode="&#x2026;" d="M139 -20q-39 0 -65.5 26.5t-26.5 65.5q0 37 26.5 63.5t65.5 26.5q38 0 65 -26.5t27 -63.5q0 -38 -27 -65t-65 -27zM614 -20q-39 0 -65.5 26.5t-26.5 65.5q0 37 26.5 63.5t65.5 26.5q38 0 65.5 -26.5t27.5 -63.5q0 -38 -27.5 -65t-65.5 -27zM1090 -20q-38 0 -65.5 27 t-27.5 65q0 37 27.5 63.5t65.5 26.5t65 -26.5t27 -63.5q0 -38 -27 -65t-65 -27z" />
<glyph unicode="&#x202f;" horiz-adv-x="364" />
<glyph unicode="&#x2039;" d="M834 940v-94l-359 -334l359 -334v-94l-437 410v36z" />
<glyph unicode="&#x203a;" d="M397 846v94l437 -410v-36l-437 -410v94l359 334z" />
<glyph unicode="&#x2044;" d="M358 -20h-77l589 1474h78z" />
<glyph unicode="&#x205f;" horiz-adv-x="455" />
<glyph unicode="&#x20ac;" d="M793 1382q-168 0 -274 -127.5t-128 -398.5h342v-55h-346q0 -13 -1 -41t-1 -43t1 -43t1 -41h346v-55h-342q22 -270 128 -398.5t274 -128.5q137 0 225 58v-78q-96 -51 -227 -51q-204 0 -330 148.5t-150 449.5h-161v55h159q-2 27 -2 84t2 84h-159v55h161q24 301 150 449.5 t330 148.5q135 0 227 -51v-78q-82 57 -225 57z" />
<glyph unicode="&#x2122;" d="M63 1454h496v-57h-217v-594h-61v594h-218v57zM901 1057l195 397h69v-651h-59v563l-186 -383h-37l-187 383v-563h-59v651h70z" />
<glyph unicode="&#x2212;" d="M1065 477h-901v70h901v-70z" />
<glyph unicode="&#x221e;" d="M397 229q-117 0 -187.5 79t-70.5 202q0 126 70.5 205.5t187.5 79.5q74 0 135.5 -43.5t81.5 -110.5q22 67 84.5 110.5t137.5 43.5q114 0 184 -79.5t70 -205.5q0 -123 -70 -202t-184 -79q-75 0 -137.5 43.5t-84.5 110.5q-20 -67 -81.5 -110.5t-135.5 -43.5zM401 293 q81 0 129 59t48 158q0 102 -47 161.5t-130 59.5q-88 0 -143 -61.5t-55 -159.5q0 -95 55 -156t143 -61zM831 293q84 0 139.5 61t55.5 156q0 98 -55 159.5t-140 61.5t-132.5 -59.5t-47.5 -161.5q0 -100 47.5 -158.5t132.5 -58.5z" />
<glyph unicode="&#x2248;" d="M137 608q49 107 125 161t158 54q47 0 102.5 -24.5t98 -54t94 -54t92.5 -24.5q135 0 217 157h68q-49 -107 -124.5 -161t-156.5 -54q-47 0 -102.5 24.5t-98 54.5t-94 54.5t-92.5 24.5q-136 0 -219 -158h-68zM137 201q49 107 125 161t158 54q47 0 102.5 -24.5t98 -54.5 t94 -54.5t92.5 -24.5q134 0 217 158h68q-49 -107 -124.5 -161t-156.5 -54q-47 0 -102.5 24.5t-98 54t-94 54t-92.5 24.5q-137 0 -219 -157h-68z" />
<glyph unicode="&#x2260;" d="M1065 324v-66h-512l-102 -258h-78l102 258h-311v66h338l149 376h-487v66h514l102 258h78l-102 -258h309v-66h-336l-149 -376h485z" />
<glyph unicode="&#x2264;" d="M956 1042v-88l-575 -325l575 -326v-86l-684 393v39zM956 0h-684v70h684v-70z" />
<glyph unicode="&#x2265;" d="M272 954v88l684 -393v-39l-684 -393v86l576 326zM956 0h-684v70h684v-70z" />
<glyph unicode="&#x25fc;" horiz-adv-x="1024" d="M0 1024h1024v-1024h-1024v1024z" />
<glyph d="M176 512q0 152 57 273.5t159.5 190t230.5 68.5q206 0 354 -176l16 156h60v-1024h-60l-16 156q-148 -176 -354 -176q-196 0 -321.5 150.5t-125.5 381.5zM258 512q0 -118 42.5 -220t130.5 -168.5t204 -66.5q52 0 108 17t108.5 50.5t86 92.5t33.5 133v324q0 74 -33.5 133 t-86 92.5t-108.5 50.5t-108 17q-116 0 -204 -66.5t-130.5 -168.5t-42.5 -220z" />
<glyph d="M686 1188h-61l188 307h94zM176 512q0 152 57 273.5t159.5 190t230.5 68.5q206 0 354 -176l16 156h60v-1024h-60l-16 156q-148 -176 -354 -176q-196 0 -321.5 150.5t-125.5 381.5zM258 512q0 -118 42.5 -220t130.5 -168.5t204 -66.5q52 0 108 17t108.5 50.5t86 92.5 t33.5 133v324q0 74 -33.5 133t-86 92.5t-108.5 50.5t-108 17q-116 0 -204 -66.5t-130.5 -168.5t-42.5 -220z" />
<glyph d="M936 1188h-76l-205 262l-204 -262h-76l248 307h65zM176 512q0 152 57 273.5t159.5 190t230.5 68.5q206 0 354 -176l16 156h60v-1024h-60l-16 156q-148 -176 -354 -176q-196 0 -321.5 150.5t-125.5 381.5zM258 512q0 -118 42.5 -220t130.5 -168.5t204 -66.5q52 0 108 17 t108.5 50.5t86 92.5t33.5 133v324q0 74 -33.5 133t-86 92.5t-108.5 50.5t-108 17q-116 0 -204 -66.5t-130.5 -168.5t-42.5 -220z" />
<glyph d="M416 1210q-38 0 -65 27.5t-27 65.5t27 65t65 27q39 0 65.5 -26.5t26.5 -65.5t-26.5 -66t-65.5 -27zM895 1210q-39 0 -65.5 27t-26.5 66t26.5 65.5t65.5 26.5q38 0 65 -27t27 -65t-27 -65.5t-65 -27.5zM176 512q0 152 57 273.5t159.5 190t230.5 68.5q206 0 354 -176 l16 156h60v-1024h-60l-16 156q-148 -176 -354 -176q-196 0 -321.5 150.5t-125.5 381.5zM258 512q0 -118 42.5 -220t130.5 -168.5t204 -66.5q52 0 108 17t108.5 50.5t86 92.5t33.5 133v324q0 74 -33.5 133t-86 92.5t-108.5 50.5t-108 17q-116 0 -204 -66.5t-130.5 -168.5 t-42.5 -220z" />
<glyph d="M727 1188h-61l-222 307h95zM176 512q0 152 57 273.5t159.5 190t230.5 68.5q206 0 354 -176l16 156h60v-1024h-60l-16 156q-148 -176 -354 -176q-196 0 -321.5 150.5t-125.5 381.5zM258 512q0 -118 42.5 -220t130.5 -168.5t204 -66.5q52 0 108 17t108.5 50.5t86 92.5 t33.5 133v324q0 74 -33.5 133t-86 92.5t-108.5 50.5t-108 17q-116 0 -204 -66.5t-130.5 -168.5t-42.5 -220z" />
<glyph d="M655 1161q-87 0 -144.5 57.5t-57.5 145.5t57.5 145.5t144.5 57.5t145 -58t58 -145t-58 -145t-145 -58zM655 1212q65 0 108.5 42.5t43.5 109.5t-43.5 109.5t-108.5 42.5t-108 -42.5t-43 -109.5t43 -109.5t108 -42.5zM176 512q0 152 57 273.5t159.5 190t230.5 68.5 q206 0 354 -176l16 156h60v-1024h-60l-16 156q-148 -176 -354 -176q-196 0 -321.5 150.5t-125.5 381.5zM258 512q0 -118 42.5 -220t130.5 -168.5t204 -66.5q52 0 108 17t108.5 50.5t86 92.5t33.5 133v324q0 74 -33.5 133t-86 92.5t-108.5 50.5t-108 17q-116 0 -204 -66.5 t-130.5 -168.5t-42.5 -220z" />
<glyph d="M317 1182q7 103 61.5 157t135.5 54q43 0 83.5 -24.5t68 -53.5t64 -53.5t71.5 -24.5q58 0 95 41t38 115h59q-7 -103 -60.5 -157t-133.5 -54q-35 0 -68 16t-58.5 39t-50 45.5t-53 38.5t-57.5 16q-58 0 -96 -40.5t-39 -114.5h-60zM176 512q0 152 57 273.5t159.5 190 t230.5 68.5q206 0 354 -176l16 156h60v-1024h-60l-16 156q-148 -176 -354 -176q-196 0 -321.5 150.5t-125.5 381.5zM258 512q0 -118 42.5 -220t130.5 -168.5t204 -66.5q52 0 108 17t108.5 50.5t86 92.5t33.5 133v324q0 74 -33.5 133t-86 92.5t-108.5 50.5t-108 17 q-116 0 -204 -66.5t-130.5 -168.5t-42.5 -220z" />
<glyph d="M252 473q0 -105 46 -201.5t134 -159.5t197 -63q135 0 219.5 73.5t109.5 174.5h78q-24 -106 -86.5 -179.5t-144 -105.5t-176.5 -32q-131 0 -236 70t-163 190t-58 266q0 149 55.5 271t159.5 194.5t238 72.5q132 0 231.5 -72.5t150 -195t50.5 -276.5v-27h-805zM975 539 q0 58 -11.5 116.5t-38.5 116.5t-66 102.5t-99.5 72.5t-134.5 28q-73 0 -136 -27.5t-105.5 -72.5t-73 -103t-44.5 -117t-14 -116h723z" />
<glyph d="M645 1188h-61l188 307h94zM252 473q0 -105 46 -201.5t134 -159.5t197 -63q135 0 219.5 73.5t109.5 174.5h78q-24 -106 -86.5 -179.5t-144 -105.5t-176.5 -32q-131 0 -236 70t-163 190t-58 266q0 149 55.5 271t159.5 194.5t238 72.5q132 0 231.5 -72.5t150 -195 t50.5 -276.5v-27h-805zM975 539q0 58 -11.5 116.5t-38.5 116.5t-66 102.5t-99.5 72.5t-134.5 28q-73 0 -136 -27.5t-105.5 -72.5t-73 -103t-44.5 -117t-14 -116h723z" />
<glyph d="M895 1188h-76l-205 262l-204 -262h-76l248 307h65zM252 473q0 -105 46 -201.5t134 -159.5t197 -63q135 0 219.5 73.5t109.5 174.5h78q-24 -106 -86.5 -179.5t-144 -105.5t-176.5 -32q-131 0 -236 70t-163 190t-58 266q0 149 55.5 271t159.5 194.5t238 72.5 q132 0 231.5 -72.5t150 -195t50.5 -276.5v-27h-805zM975 539q0 58 -11.5 116.5t-38.5 116.5t-66 102.5t-99.5 72.5t-134.5 28q-73 0 -136 -27.5t-105.5 -72.5t-73 -103t-44.5 -117t-14 -116h723z" />
<glyph d="M375 1210q-38 0 -65 27.5t-27 65.5t27 65t65 27q39 0 65.5 -26.5t26.5 -65.5t-26.5 -66t-65.5 -27zM854 1210q-39 0 -65.5 27t-26.5 66t26.5 65.5t65.5 26.5q38 0 65 -27t27 -65t-27 -65.5t-65 -27.5zM252 473q0 -105 46 -201.5t134 -159.5t197 -63q135 0 219.5 73.5 t109.5 174.5h78q-24 -106 -86.5 -179.5t-144 -105.5t-176.5 -32q-131 0 -236 70t-163 190t-58 266q0 149 55.5 271t159.5 194.5t238 72.5q132 0 231.5 -72.5t150 -195t50.5 -276.5v-27h-805zM975 539q0 58 -11.5 116.5t-38.5 116.5t-66 102.5t-99.5 72.5t-134.5 28 q-73 0 -136 -27.5t-105.5 -72.5t-73 -103t-44.5 -117t-14 -116h723z" />
<glyph d="M686 1188h-61l-222 307h95zM252 473q0 -105 46 -201.5t134 -159.5t197 -63q135 0 219.5 73.5t109.5 174.5h78q-24 -106 -86.5 -179.5t-144 -105.5t-176.5 -32q-131 0 -236 70t-163 190t-58 266q0 149 55.5 271t159.5 194.5t238 72.5q132 0 231.5 -72.5t150 -195 t50.5 -276.5v-27h-805zM975 539q0 58 -11.5 116.5t-38.5 116.5t-66 102.5t-99.5 72.5t-134.5 28q-73 0 -136 -27.5t-105.5 -72.5t-73 -103t-44.5 -117t-14 -116h723z" />
<glyph d="M1053 2q0 -191 -114.5 -312.5t-315.5 -121.5q-181 0 -286.5 95t-105.5 220h80q0 -98 84.5 -171.5t225.5 -73.5q160 0 255 98t95 266v154q-65 -81 -155 -128.5t-198 -47.5q-193 0 -317.5 150.5t-124.5 381.5t125.5 381.5t321.5 150.5q206 0 354 -176l16 156h60v-1022z M635 57q52 0 108 17t108.5 50.5t86 92.5t33.5 133v324q0 74 -33.5 133t-86 92.5t-108.5 50.5t-108 17q-116 0 -204 -66.5t-130.5 -168.5t-42.5 -220t42.5 -220t130.5 -168.5t204 -66.5z" />
<glyph d="M285 1024l356 -930l354 930h84l-555 -1434h-82l160 410l-399 1024h82z" />
<glyph d="M645 1188h-61l188 307h94zM285 1024l356 -930l354 930h84l-555 -1434h-82l160 410l-399 1024h82z" />
<glyph d="M895 1188h-76l-205 262l-204 -262h-76l248 307h65zM285 1024l356 -930l354 930h84l-555 -1434h-82l160 410l-399 1024h82z" />
<glyph d="M375 1210q-38 0 -65 27.5t-27 65.5t27 65t65 27q39 0 65.5 -26.5t26.5 -65.5t-26.5 -66t-65.5 -27zM854 1210q-39 0 -65.5 27t-26.5 66t26.5 65.5t65.5 26.5q38 0 65 -27t27 -65t-27 -65.5t-65 -27.5zM285 1024l356 -930l354 930h84l-555 -1434h-82l160 410l-399 1024h82 z" />
<glyph d="M686 1188h-61l-222 307h95zM285 1024l356 -930l354 930h84l-555 -1434h-82l160 410l-399 1024h82z" />
<glyph d="M614 1044q202 0 331.5 -150.5t129.5 -381.5q0 -230 -129 -381t-332 -151q-201 0 -330.5 151t-129.5 381t129.5 381t330.5 151zM614 973q-166 0 -273.5 -129.5t-107.5 -331.5q0 -120 41 -216.5t113 -156.5l420 776q-86 58 -193 58zM614 51q167 0 274 129.5t107 331.5 q0 120 -39.5 216t-111.5 155l-420 -777q86 -55 190 -55z" />
<glyph d="M614 897q-45 -51 -136 -93t-177 -42v69q93 0 197.5 58t134.5 135h63v-954h396v-70h-873v70h395v827z" />
<glyph d="M188 76q0 47 10 82.5t33.5 63.5t43 44.5t57.5 42.5q125 86 248 163.5t179 111t104.5 69t62.5 61t14 62.5q0 86 -92 142.5t-205 56.5q-77 0 -140.5 -18.5t-102.5 -46.5t-66 -63t-38 -66t-11 -58h-76q0 53 27 107.5t78.5 103t138 79.5t192.5 31q156 0 265.5 -78t109.5 -186 q0 -37 -8.5 -65.5t-32.5 -56.5t-53 -51t-84.5 -58t-111 -67.5t-149.5 -90.5t-184 -117q-85 -56 -107 -91.5t-22 -112.5h772v-70h-852v76z" />
<glyph d="M614 -430q-108 0 -193.5 35.5t-138.5 96.5t-80.5 138.5t-27.5 165.5h76q0 -156 97 -260t265 -104q69 0 133.5 24t115.5 67t81.5 108.5t30.5 142.5q0 101 -57 177.5t-144.5 113.5t-189.5 38v62q81 1 161 39t134.5 109t54.5 155q0 130 -92.5 210.5t-208.5 80.5 q-155 0 -247.5 -102.5t-92.5 -258.5h-76q0 118 47.5 215.5t145 159t227.5 61.5q97 0 183.5 -44t141 -127t54.5 -187q0 -210 -258 -336q61 -21 112 -52t94.5 -75t68 -106t24.5 -135q0 -121 -60.5 -216t-161 -145.5t-219.5 -50.5z" />
<glyph d="M158 -49l669 1073h68v-1063h176v-70h-176v-301h-82v301h-655v60zM244 -39h569v913z" />
<glyph d="M596 -430q-145 0 -258.5 85.5t-159.5 231.5h76q43 -114 136.5 -179.5t203.5 -65.5q164 0 269.5 114.5t105.5 298.5q0 177 -97 296.5t-251 119.5q-109 0 -200 -69.5t-138 -174.5h-68l86 797h709v-70h-639l-68 -610q62 86 150 141.5t194 55.5q113 0 206 -65t145.5 -175.5 t52.5 -243.5q0 -213 -128 -350t-327 -137z" />
<glyph d="M614 -20q-132 0 -233.5 74t-154 197.5t-52.5 274.5q0 251 32.5 432t95 288.5t147 157.5t196.5 50q135 0 238 -89.5t131 -246.5h-76q-25 129 -109.5 197.5t-181.5 68.5q-83 0 -147.5 -36t-107 -96.5t-71.5 -151.5t-44 -190.5t-21 -223.5q50 121 152.5 192.5t218.5 71.5 q118 0 217 -66.5t155 -177.5t56 -241q0 -198 -127 -341.5t-314 -143.5zM614 49q98 0 181 57.5t130.5 153.5t47.5 205t-47.5 205t-130.5 153.5t-181 57.5q-67 0 -130.5 -28t-114.5 -77.5t-82 -126t-31 -166.5q0 -71 23 -145t65.5 -139.5t113 -107.5t156.5 -42z" />
<glyph d="M465 -410q0 390 120 727.5t371 636.5h-778v70h873v-59q-260 -306 -383 -643t-123 -732h-80z" />
<glyph d="M614 -20q-196 0 -328 123.5t-132 308.5q0 134 80.5 238t205.5 147q-96 38 -160.5 122t-64.5 183q0 152 117 252t282 100t282.5 -100t117.5 -252q0 -99 -64.5 -183t-161.5 -122q125 -43 206 -147t81 -238q0 -185 -132.5 -308.5t-328.5 -123.5zM614 823q78 0 150 32.5 t120 96.5t48 144q0 123 -94.5 204.5t-223.5 81.5t-223 -81.5t-94 -204.5q0 -80 48 -144t119.5 -96.5t149.5 -32.5zM614 53q156 0 267.5 105t111.5 258q0 149 -109 245.5t-270 96.5t-269.5 -96.5t-108.5 -245.5q0 -153 111 -258t267 -105z" />
<glyph d="M584 -430q-135 0 -238 89.5t-131 246.5h76q25 -129 109.5 -197.5t181.5 -68.5q83 0 147.5 36t107 96.5t71.5 151.5t44 190.5t21 223.5q-50 -121 -152.5 -192.5t-218.5 -71.5q-126 0 -225 67t-151 177t-52 241t52.5 240.5t154 177t233.5 67.5q103 0 187 -43t139 -117.5 t85 -173.5t30 -212q0 -251 -32.5 -432t-95 -288.5t-147 -157.5t-196.5 -50zM614 145q67 0 130.5 27.5t115 77t82.5 125.5t31 166q0 72 -21.5 145t-63.5 138.5t-113.5 107t-160.5 41.5q-159 0 -258.5 -121t-99.5 -293t99.5 -293t258.5 -121z" />
<glyph horiz-adv-x="0" d="M-584 1577h-61l156 211h102z" />
<glyph horiz-adv-x="0" d="M-315 1577h-93l-206 213l-207 -213h-92l256 246h86z" />
<glyph horiz-adv-x="0" d="M-854 1579q-38 0 -65 27t-27 65t27 65t65 27q39 0 65.5 -26.5t26.5 -65.5t-26.5 -65.5t-65.5 -26.5zM-375 1579q-39 0 -65.5 26.5t-26.5 65.5t26.5 65.5t65.5 26.5q38 0 65 -27t27 -65t-27 -65t-65 -27z" />
<glyph horiz-adv-x="0" d="M-614 1579q-40 0 -66.5 26.5t-26.5 65.5t26.5 65.5t66.5 26.5q38 0 65 -27t27 -65t-27 -65t-65 -27z" />
<glyph horiz-adv-x="0" d="M-584 1577h-61l-197 211h103z" />
<glyph horiz-adv-x="0" d="M-614 1401q-87 0 -145 58t-58 145t58 143.5t145 56.5t144.5 -56.5t57.5 -143.5q0 -88 -58 -145.5t-144 -57.5zM-614 1452q65 0 108 42.5t43 109.5q0 66 -43 108.5t-108 42.5t-108.5 -42.5t-43.5 -108.5q0 -67 43.5 -109.5t108.5 -42.5z" />
<glyph horiz-adv-x="0" d="M-952 1571q7 103 61.5 157t134.5 54q43 0 83.5 -24.5t68 -53.5t64 -53.5t71.5 -24.5q58 0 95 41t38 115h60q-7 -103 -61 -157t-134 -54q-35 0 -68 16t-58.5 38.5t-50 45.5t-53 39t-57.5 16q-58 0 -96 -40.5t-39 -114.5h-59z" />
</font>
</defs>
</svg>
